<svg width="52" height="42" viewBox="0 0 52 42" fill="none" xmlns="http://www.w3.org/2000/svg">
<path d="M2.03418 36.3913H18.7092V39.0629H11.2085C10.6201 39.0629 10.1387 39.5148 10.1387 40.0671C10.1387 40.6194 10.6201 41.0713 11.2085 41.0713L41.1675 41.0717C41.756 41.0717 42.2373 40.6198 42.2373 40.0675C42.2373 39.5152 41.756 39.0633 41.1675 39.0633L33.6669 39.0629V36.3913H50.3419C50.9303 36.3913 51.4117 35.9394 51.4117 35.3871L51.4121 1.86771C51.4121 1.31539 50.9307 0.863525 50.3423 0.863525H2.03463C1.44622 0.863525 0.964844 1.31539 0.964844 1.86771V35.3871C0.964396 35.9444 1.44622 36.3913 2.03463 36.3913H2.03418ZM31.5266 39.068H20.8485V36.3963H31.5266V39.068ZM3.10374 2.87135H49.2666V34.3817L3.10374 34.3821V2.87135Z" fill="#FFB304"/>
<path d="M26.1889 14.1758C23.7175 14.1758 21.7061 16.064 21.7061 18.3838C21.7061 20.7036 23.7176 22.5917 26.1889 22.5917C28.6602 22.5917 30.6718 20.7036 30.6718 18.3838C30.6718 16.064 28.6656 14.1758 26.1889 14.1758ZM26.1889 20.5885C24.8943 20.5885 23.8456 19.5995 23.8456 18.389C23.8456 17.1788 24.8993 16.1894 26.1889 16.1894C27.4781 16.1894 28.5322 17.1784 28.5322 18.389C28.5322 19.5995 27.4835 20.5885 26.1889 20.5885Z" fill="#FFB304"/>
<path d="M38.1231 20.2663C37.1174 20.1456 36.3579 19.3373 36.3579 18.3832C36.3579 17.434 37.112 16.6257 38.1178 16.5051C38.4228 16.4698 38.6955 16.3092 38.867 16.0684C39.0381 15.8275 39.0918 15.5312 39.017 15.255C38.7067 14.1353 38.2361 13.0705 37.6154 12.0865C37.4604 11.8406 37.198 11.6645 36.8984 11.6095C36.5989 11.5544 36.2832 11.6246 36.0427 11.8003C35.2403 12.3778 34.1007 12.3076 33.3842 11.6347C32.6726 10.9617 32.5978 9.89242 33.2077 9.13918C33.3949 8.91303 33.4697 8.61712 33.411 8.33592C33.3524 8.05471 33.1701 7.80882 32.9028 7.66296C31.8276 7.07029 30.688 6.62346 29.5273 6.33725C29.2277 6.26705 28.9121 6.31707 28.6608 6.47806C28.4096 6.63863 28.2381 6.89504 28.2009 7.18129C28.0724 8.12537 27.2113 8.83822 26.1948 8.83822C25.1837 8.83822 24.3226 8.13037 24.1887 7.18624C24.1511 6.89999 23.98 6.644 23.7288 6.48301C23.4722 6.32244 23.1565 6.27201 22.8623 6.3422C21.6694 6.63349 20.5297 7.07527 19.4815 7.65285C19.2195 7.79829 19.0319 8.0446 18.9732 8.3258C18.9145 8.60701 18.9893 8.90335 19.1765 9.12906C19.7972 9.88231 19.7224 10.9571 19.0054 11.6296C18.2885 12.3026 17.144 12.3728 16.3415 11.7902C16.1006 11.6145 15.7854 11.5443 15.4858 11.5994C15.1862 11.6544 14.9243 11.8255 14.7689 12.0764C14.1536 13.0609 13.683 14.1252 13.3726 15.25C13.2978 15.5312 13.3511 15.8275 13.5226 16.0633C13.6937 16.3042 13.9668 16.4601 14.2718 16.5001C15.2775 16.6207 16.0317 17.429 16.0317 18.3832C16.0317 19.3323 15.2776 20.1406 14.2718 20.2612C13.9668 20.2965 13.6941 20.4571 13.5226 20.698C13.3516 20.9388 13.2978 21.2351 13.3726 21.5113C13.6829 22.6311 14.1536 23.6958 14.7743 24.6798C14.9292 24.9257 15.1916 25.1018 15.4912 25.1569C15.7908 25.2119 16.1011 25.1417 16.3469 24.966C17.1494 24.3885 18.289 24.4587 19.0054 25.1316C19.717 25.7996 19.7918 26.8739 19.1819 27.6271C18.9947 27.8533 18.9199 28.1492 18.9786 28.4304C19.0372 28.7116 19.2195 28.9575 19.4868 29.1034C20.562 29.7011 21.7016 30.1429 22.8623 30.4291C22.9532 30.4492 23.0387 30.4593 23.1296 30.4593C23.3437 30.4593 23.5524 30.3992 23.7288 30.2887C23.9854 30.1281 24.1515 29.8717 24.1887 29.5855C24.3172 28.6414 25.1783 27.9285 26.1948 27.9285C27.2059 27.9285 28.067 28.6364 28.1956 29.5805C28.2385 29.8668 28.4042 30.1227 28.6608 30.2837C28.9174 30.4443 29.2277 30.4947 29.5273 30.4245C30.7202 30.1333 31.8545 29.6915 32.9028 29.1088C33.1647 28.9634 33.3524 28.7171 33.411 28.4359C33.4697 28.1547 33.3949 27.8583 33.2077 27.6326C32.5924 26.8794 32.6672 25.8097 33.3842 25.1371C34.1011 24.4642 35.2402 24.394 36.0427 24.9715C36.289 25.1472 36.5989 25.2174 36.8984 25.1623C37.198 25.1073 37.46 24.9312 37.6153 24.6853C38.2467 23.676 38.7228 22.6063 39.0277 21.5168C39.1024 21.2356 39.0492 20.9392 38.8776 20.7034C38.7008 20.4622 38.4281 20.3066 38.1231 20.2663ZM36.2509 22.8173C34.7637 22.3049 33.0357 22.6214 31.8696 23.716C30.7035 24.8105 30.3664 26.4326 30.9068 27.8286C30.6019 27.9643 30.2862 28.0846 29.9651 28.1951C29.3019 26.8441 27.8413 25.9253 26.1884 25.9253C24.5302 25.9253 23.0695 26.8492 22.4064 28.2002C22.0907 28.0896 21.775 27.969 21.47 27.8286C22.0159 26.4326 21.6787 24.8106 20.5126 23.716C19.3465 22.6164 17.6185 22.3049 16.1313 22.8123C15.9867 22.526 15.8586 22.2297 15.7409 21.9283C17.1801 21.3007 18.159 19.9347 18.159 18.3832C18.159 16.8313 17.1747 15.4606 15.7355 14.8381C15.8479 14.5367 15.9818 14.2404 16.1206 13.9542C17.6078 14.4665 19.3358 14.1551 20.5072 13.0555C21.6787 11.9559 22.0159 10.3338 21.4646 8.93781C21.7696 8.80204 22.0853 8.68182 22.4064 8.57128C23.0695 9.92227 24.5302 10.8462 26.183 10.8462C27.8413 10.8462 29.2966 9.92228 29.9651 8.57128C30.2808 8.68182 30.5965 8.80246 30.9015 8.94285C30.3556 10.3388 30.6928 11.9609 31.8589 13.0555C33.0249 14.15 34.753 14.4665 36.2401 13.9592C36.3848 14.2454 36.5129 14.5418 36.6306 14.8431C35.1914 15.4707 34.2125 16.8368 34.2125 18.3882C34.2125 19.9448 35.1967 21.3108 36.636 21.9384C36.529 22.2301 36.3951 22.526 36.2509 22.8173Z" fill="#FFB304"/>
</svg>
