<svg width="30" height="31" viewBox="0 0 30 31" fill="none" xmlns="http://www.w3.org/2000/svg">
<path d="M11.2392 3.12302C12.1404 2.28507 13.3628 1.7795 14.6738 1.7795C15.2367 1.7795 15.7674 1.87336 16.2652 2.02896C16.3174 2.04526 16.3586 2.08547 16.3763 2.13719C16.3939 2.18891 16.3858 2.24594 16.3545 2.29071C15.9485 2.87056 15.6908 3.56184 15.6908 4.3067C15.6908 5.7163 16.5542 6.95376 17.7905 7.47123C17.8392 7.49162 17.8758 7.53335 17.8896 7.58432C17.9035 7.63529 17.8931 7.68981 17.8614 7.73206C17.43 8.30701 17.1707 9.02617 17.1707 9.83409C17.1707 11.8236 18.7854 13.4383 20.7749 13.4383C21.635 13.4383 22.4434 13.0938 23.0828 12.5708C23.1256 12.5358 23.1826 12.5236 23.236 12.5381C23.2894 12.5525 23.3325 12.5918 23.3518 12.6436C23.9015 14.1191 25.3491 15.1901 27.0272 15.1901C27.55 15.1901 28.0382 15.1033 28.4952 14.904C28.5339 14.886 28.5787 14.8828 28.6205 14.8964L28.6205 14.8964C28.6804 14.9158 28.7241 14.9662 28.7358 15.0268C28.7984 15.3096 28.8294 15.5927 28.8292 15.9052C28.8292 15.9053 28.8292 15.9053 28.8292 15.9053L28.6579 15.9052C28.6579 17.2039 28.1445 18.4122 27.2988 19.288L11.2392 3.12302ZM11.2392 3.12302C10.0459 2.87011 8.74042 3.03407 7.61208 3.67439L7.61206 3.6744C6.48066 4.31669 5.68027 5.37488 5.29488 6.55622C4.11473 6.94029 3.08529 7.71232 2.41388 8.87194C1.77206 9.97217 1.60866 11.2778 1.86143 12.4704C1.02344 13.3716 0.5179 14.594 0.5179 15.905C0.5179 17.2162 1.02349 18.4384 1.86143 19.3398C1.60851 20.5331 1.77247 21.8386 2.41278 22.9669L2.41352 22.9682C3.08492 24.1279 4.11442 24.9 5.29463 25.2841C5.67874 26.4644 6.45085 27.4939 7.61059 28.1653C8.76757 28.835 10.046 29.0013 11.2409 28.7191C12.1419 29.5561 13.3635 30.0609 14.6736 30.0609C15.9846 30.0609 17.2069 29.5553 18.1082 28.7173C19.3014 28.9703 20.6069 28.8063 21.7352 28.166L21.7353 28.166C22.8667 27.5237 23.6671 26.4655 24.0524 25.2842C25.2327 24.9001 26.2622 24.1279 26.9336 22.9682C27.6034 21.8112 27.7697 20.5328 27.4875 19.3379L11.2392 3.12302ZM5.48165 17.5662C5.48165 18.4363 6.18845 19.1167 7.03208 19.1167C7.87572 19.1167 8.58231 18.4364 8.58252 17.5662H5.48165ZM5.48165 17.5662C5.48165 16.7226 6.16202 16.0158 7.03208 16.0158M5.48165 17.5662L7.03208 16.0158M7.03208 16.0158C7.87571 16.0158 8.5825 16.6962 8.58252 17.5662L7.03208 16.0158ZM10.2638 11.6563C9.42215 11.6563 8.74375 10.9779 8.74375 10.1362C8.74375 9.29455 9.42215 8.61615 10.2638 8.61615C11.1055 8.61615 11.7839 9.29455 11.7839 10.1362C11.7839 10.9779 11.1055 11.6563 10.2638 11.6563ZM13.9487 24.795C13.1675 24.795 12.5494 24.1771 12.5494 23.3957C12.5494 22.6145 13.1673 21.9963 13.9487 21.9963C14.7299 21.9963 15.3481 22.6143 15.3481 23.3957C15.3481 24.1771 14.7299 24.795 13.9487 24.795ZM14.6737 17.5763C13.983 17.5763 13.4254 17.0186 13.4254 16.328C13.4254 15.6374 13.9831 15.0797 14.6737 15.0797C15.3642 15.0797 15.9219 15.6374 15.9219 16.328C15.9219 17.0188 15.3643 17.5763 14.6737 17.5763ZM21.0769 21.3518C20.2353 21.3518 19.5569 20.6734 19.5569 19.8317C19.5569 18.9901 20.2353 18.3117 21.0769 18.3117C21.9177 18.3117 22.5955 18.9886 22.597 19.8289C22.5683 20.6767 21.8846 21.3518 21.0769 21.3518Z" fill="white" stroke="white" stroke-width="0.342618" stroke-linejoin="round"/>
<path d="M22.0133 10.3981C23.0442 10.3981 23.876 9.56625 23.876 8.53537C23.876 7.50448 23.0442 6.67269 22.0133 6.67269C20.9833 6.67269 20.1521 7.503 20.1506 8.53261C20.1188 9.56955 20.9564 10.3981 22.0133 10.3981Z" fill="white" stroke="white" stroke-width="0.342618" stroke-linejoin="round"/>
<path d="M23.1911 4.7801C24.222 4.7801 25.0538 3.9483 25.0538 2.91742C25.0538 1.89029 24.2259 1.02437 23.1911 1.02437C22.1602 1.02437 21.3284 1.85617 21.3284 2.88705C21.3284 3.91395 22.1563 4.7801 23.1911 4.7801Z" fill="white" stroke="white" stroke-width="0.342618" stroke-linejoin="round"/>
<path d="M27.6611 10.8511C28.6899 10.8511 29.524 10.0172 29.524 8.98837C29.524 7.95956 28.6899 7.12569 27.6611 7.12569C26.6326 7.12569 25.7984 7.95958 25.7984 8.98837C25.7984 10.0172 26.6326 10.8511 27.6611 10.8511Z" fill="white" stroke="white" stroke-width="0.342618" stroke-linejoin="round"/>
</svg>
