<svg width="44" height="44" viewBox="0 0 44 44" fill="none" xmlns="http://www.w3.org/2000/svg">
<rect x="0.25293" y="0.00366211" width="43.3956" height="43.3956" rx="8.17037" fill="white"/>
<path d="M31.5388 12.6513C29.7278 11.8188 27.7858 11.2054 25.7553 10.8541C25.7183 10.8474 25.6814 10.8643 25.6623 10.8982C25.4126 11.3432 25.1359 11.9238 24.9422 12.3802C22.7582 12.0526 20.5855 12.0526 18.4464 12.3802C18.2526 11.9137 17.9659 11.3432 17.715 10.8982C17.696 10.8654 17.659 10.8485 17.622 10.8541C15.5926 11.2043 13.6506 11.8177 11.8385 12.6513C11.8228 12.6581 11.8094 12.6694 11.8004 12.684C8.11684 18.1975 7.10774 23.5754 7.60277 28.8867C7.60501 28.9127 7.61957 28.9376 7.63973 28.9534C10.0701 30.7415 12.4243 31.827 14.7348 32.5465C14.7717 32.5578 14.8109 32.5443 14.8344 32.5138C15.381 31.766 15.8682 30.9776 16.2859 30.1484C16.3106 30.0999 16.287 30.0423 16.2366 30.0231C15.4639 29.7294 14.728 29.3713 14.0202 28.9647C13.9642 28.9319 13.9597 28.8517 14.0112 28.8133C14.1602 28.7014 14.3092 28.5851 14.4514 28.4676C14.4771 28.4462 14.513 28.4416 14.5433 28.4552C19.1934 30.5822 24.2276 30.5822 28.8229 28.4552C28.8531 28.4405 28.889 28.445 28.9158 28.4665C29.0581 28.584 29.2071 28.7014 29.3571 28.8133C29.4086 28.8517 29.4053 28.9319 29.3493 28.9647C28.6415 29.3792 27.9056 29.7294 27.1317 30.0219C27.0813 30.0411 27.0589 30.0999 27.0836 30.1484C27.5103 30.9764 27.9975 31.7648 28.5339 32.5126C28.5563 32.5443 28.5966 32.5578 28.6336 32.5465C30.9553 31.827 33.3095 30.7415 35.7398 28.9534C35.7611 28.9376 35.7746 28.9138 35.7768 28.8878C36.3693 22.7474 34.7845 17.4136 31.5758 12.6852C31.5679 12.6694 31.5545 12.6581 31.5388 12.6513ZM16.9803 25.6527C15.5803 25.6527 14.4268 24.365 14.4268 22.7836C14.4268 21.2022 15.558 19.9145 16.9803 19.9145C18.4139 19.9145 19.5563 21.2135 19.5338 22.7836C19.5338 24.365 18.4027 25.6527 16.9803 25.6527ZM26.4217 25.6527C25.0217 25.6527 23.8681 24.365 23.8681 22.7836C23.8681 21.2022 24.9993 19.9145 26.4217 19.9145C27.8552 19.9145 28.9976 21.2135 28.9752 22.7836C28.9752 24.365 27.8552 25.6527 26.4217 25.6527Z" fill="#232323"/>
</svg>
