<svg width="33" height="26" viewBox="0 0 33 26" fill="none" xmlns="http://www.w3.org/2000/svg">
<path d="M27.2466 2.60251C25.1985 1.66099 23.0022 0.96732 20.7058 0.570026C20.6639 0.562358 20.6222 0.581521 20.6006 0.619845C20.3182 1.12317 20.0053 1.77979 19.7862 2.2959C17.3163 1.92544 14.859 1.92544 12.4397 2.2959C12.2206 1.76832 11.8964 1.12317 11.6126 0.619845C11.5911 0.582799 11.5493 0.563637 11.5075 0.570026C9.21236 0.96605 7.01604 1.65972 4.96663 2.60251C4.94889 2.61017 4.93368 2.62296 4.92359 2.63956C0.757634 8.87497 -0.383597 14.9571 0.176253 20.9639C0.178786 20.9933 0.195252 21.0214 0.218051 21.0392C2.96663 23.0615 5.6291 24.2892 8.24213 25.1029C8.28395 25.1157 8.32826 25.1004 8.35487 25.0659C8.97298 24.2202 9.52397 23.3285 9.9964 22.3908C10.0243 22.3359 9.99766 22.2707 9.94068 22.249C9.06672 21.9169 8.23452 21.5119 7.43401 21.052C7.3707 21.015 7.36563 20.9242 7.42388 20.8808C7.59233 20.7543 7.76084 20.6228 7.92169 20.4899C7.95079 20.4656 7.99134 20.4605 8.02556 20.4758C13.2846 22.8814 18.9781 22.8814 24.175 20.4758C24.2092 20.4592 24.2498 20.4644 24.2802 20.4886C24.4411 20.6215 24.6095 20.7543 24.7792 20.8808C24.8375 20.9242 24.8337 21.015 24.7704 21.052C23.9699 21.5208 23.1377 21.9169 22.2624 22.2477C22.2054 22.2695 22.1801 22.3359 22.208 22.3908C22.6905 23.3272 23.2415 24.2189 23.8482 25.0646C23.8736 25.1004 23.9192 25.1157 23.961 25.1029C26.5867 24.2892 29.2491 23.0615 31.9977 21.0392C32.0218 21.0214 32.037 20.9945 32.0395 20.9651C32.7096 14.0207 30.9173 7.98841 27.2884 2.64083C27.2795 2.62296 27.2644 2.61017 27.2466 2.60251ZM10.7817 17.3064C9.19842 17.3064 7.89381 15.8501 7.89381 14.0616C7.89381 12.2731 9.17312 10.8168 10.7817 10.8168C12.403 10.8168 13.695 12.2859 13.6696 14.0616C13.6696 15.8501 12.3903 17.3064 10.7817 17.3064ZM21.4594 17.3064C19.8761 17.3064 18.5715 15.8501 18.5715 14.0616C18.5715 12.2731 19.8508 10.8168 21.4594 10.8168C23.0807 10.8168 24.3726 12.2859 24.3473 14.0616C24.3473 15.8501 23.0807 17.3064 21.4594 17.3064Z" fill="#FFB304"/>
</svg>
