<svg width="23" height="42" viewBox="0 0 23 42" fill="none" xmlns="http://www.w3.org/2000/svg">
<path d="M12.8551 6.19334L12.7066 5.67471C12.4781 4.78674 12.4996 4.0973 12.7751 3.67101C12.9374 3.4294 13.1875 3.26012 13.473 3.20087C13.653 3.18548 13.8193 3.09853 13.9339 2.96002C14.0462 2.82075 14.0963 2.64146 14.0716 2.46448L13.8216 0.74087C13.7646 0.399225 13.4561 0.157611 13.1106 0.184543C12.0464 0.253025 9.94343 0.960169 9.62025 3.15778C9.52484 4.05729 9.21474 4.91986 8.71536 5.67394C8.70843 5.67394 8.70151 5.67394 8.69458 5.67394L9.50868 6.03483L12.8543 6.1918L12.8551 6.19334Z" fill="#DC9A00"/>
<path d="M9.46358 5.33557C8.11009 5.36173 6.36493 5.65875 5.11146 6.80911C3.85722 7.95947 3.31013 9.86006 3.66332 12.2985C3.93032 14.0821 4.17578 15.3879 4.37431 16.4352C5.00373 19.7878 5.02913 19.917 3.25858 23.2088C0.793192 27.8156 -0.387175 32.1639 0.112981 34.8178C0.888607 38.9499 4.71518 41.2121 10.9117 41.2121H11.4203V5.33557H9.46358Z" fill="#FFB304"/>
<path d="M19.5732 23.2097C17.8018 19.9171 17.8495 19.7878 18.4574 16.436C18.6552 15.3888 18.8883 14.0838 19.1684 12.2994C19.5301 9.86014 19.0476 8.01187 17.7295 6.80996C16.4968 5.68115 14.7994 5.3749 13.4551 5.33643H11.4214V41.213H11.93C18.1265 41.213 21.9531 38.9507 22.7288 34.8187C23.2289 32.164 22.0485 27.8165 19.5747 23.2105L19.5732 23.2097Z" fill="#F18140"/>
<path d="M11.3884 27.1918H15.7998C18.3339 27.1918 20.3912 29.2495 20.3912 31.784V32.7494C20.3912 35.6699 18.0202 38.0406 15.101 38.0406H11.3884V27.191V27.1918Z" fill="white"/>
<path d="M13.2351 30.8843V30.7056C13.2351 29.7846 14.063 29.0375 15.0818 29.0375V29.2162C15.0818 30.1372 14.2539 30.8843 13.2351 30.8843Z" fill="#F18140"/>
<path d="M13.3679 32.639L13.4884 32.5185C14.1099 31.897 15.1185 31.8975 15.7395 32.5185L15.6189 32.639C14.9975 33.2605 13.9888 33.26 13.3679 32.639Z" fill="#F18140"/>
<path d="M13.2346 34.3469C14.2543 34.3469 15.0813 35.0947 15.0813 36.015V36.1937C14.0617 36.1937 13.2346 35.4458 13.2346 34.5256V34.3469Z" fill="#F18140"/>
</svg>
