<svg width="149" height="99" viewBox="0 0 149 99" fill="none" xmlns="http://www.w3.org/2000/svg">
<path d="M76.2264 9.47413L75.9923 8.65669C75.6321 7.2571 75.6661 6.17041 76.1003 5.49851C76.3562 5.11769 76.7504 4.85087 77.2003 4.75748C77.4841 4.73322 77.7461 4.59617 77.9268 4.37787C78.1039 4.15835 78.1827 3.87576 78.1439 3.59681L77.7497 0.880096C77.66 0.341604 77.1736 -0.0392216 76.6291 0.00322708C74.9517 0.111168 71.6371 1.22575 71.1277 4.68956C70.9773 6.10735 70.4886 7.46692 69.7014 8.65548C69.6905 8.65548 69.6796 8.65548 69.6687 8.65548L70.9519 9.22429L76.2252 9.47171L76.2264 9.47413Z" fill="#DC9A00"/>
<path d="M70.8806 8.12207C68.7473 8.16331 65.9966 8.63145 64.0209 10.4446C62.044 12.2578 61.1817 15.2535 61.7384 19.0969C62.1592 21.9082 62.5461 23.9663 62.859 25.617C63.8511 30.9012 63.8911 31.105 61.1004 36.2934C57.2146 43.5546 55.3541 50.4082 56.1424 54.5913C57.365 61.1041 63.3963 64.6698 73.1631 64.6698H73.9648V8.12207H70.8806Z" fill="#FFB304"/>
<path d="M86.8144 36.295C84.0225 31.1054 84.0977 30.9016 85.0558 25.6186C85.3675 23.9679 85.735 21.911 86.1765 19.0985C86.7465 15.2538 85.9861 12.3406 83.9085 10.4462C81.9656 8.667 79.2901 8.1843 77.1713 8.12366H73.9658V64.6714H74.7675C84.5343 64.6714 90.5657 61.1057 91.7882 54.5928C92.5765 50.4086 90.7161 43.5562 86.8169 36.2962L86.8144 36.295Z" fill="#F18140"/>
<path d="M73.9141 42.5714H80.8672C84.8613 42.5714 88.1041 45.8147 88.1041 49.8095V51.3311C88.1041 55.9344 84.367 59.6709 79.7657 59.6709H73.9141V42.5702V42.5714Z" fill="#FFEDCA"/>
<path d="M76.8246 48.3914V48.1098C76.8246 46.6581 78.1295 45.4806 79.7354 45.4806V45.7622C79.7354 47.2139 78.4304 48.3914 76.8246 48.3914Z" fill="#F18140"/>
<path d="M77.0341 51.1573L77.2241 50.9673C78.2036 49.9878 79.7934 49.9886 80.7721 50.9673L80.5821 51.1573C79.6026 52.1368 78.0128 52.136 77.0341 51.1573Z" fill="#F18140"/>
<path d="M76.8247 53.8492C78.4319 53.8492 79.7355 55.0279 79.7355 56.4784V56.76C78.1283 56.76 76.8247 55.5813 76.8247 54.1308V53.8492Z" fill="#F18140"/>
<path d="M7.87747 93.3382C13.253 93.3382 15.9531 90.6629 15.9531 87.4921C15.9531 81.1009 6.36638 82.8349 6.36638 80.7541C6.36638 80.1596 6.91137 79.6641 8.62063 79.6641C10.1317 79.6641 11.7419 80.0853 13.4512 80.9523L15.21 76.7163C13.4016 75.7006 10.9987 75.2052 8.67017 75.2052C3.29467 75.2052 0.594526 77.831 0.594526 81.0514C0.594526 87.5168 10.1813 85.758 10.1813 87.938C10.1813 88.5325 9.58673 88.8793 7.92702 88.8793C6.01958 88.8793 3.83965 88.26 2.2047 87.2939L0.322035 91.5547C2.05607 92.6199 4.97916 93.3382 7.87747 93.3382ZM131.192 92.1492C130.474 92.8676 129.632 93.2639 128.79 93.2639C128.17 93.2639 127.7 93.0905 127.179 92.5455C130.573 91.1831 132.778 88.1114 132.778 84.2717C132.778 79.0201 128.641 75.2052 122.993 75.2052C117.345 75.2052 113.208 79.0201 113.208 84.2717C113.208 88.7307 116.205 92.174 120.565 93.0905C123.687 96.3604 125.594 97.3265 128.666 97.3265C130.747 97.3265 132.505 96.5586 133.719 95.1218L131.192 92.1492ZM122.993 79.9366C125.148 79.9366 126.882 81.5716 126.882 84.2717C126.882 86.9719 125.148 88.6068 122.993 88.6068C120.838 88.6068 119.104 86.9719 119.104 84.2717C119.104 81.5716 120.838 79.9366 122.993 79.9366ZM134.9 92.9419H148.574V88.4086H140.746V75.6015H134.9V92.9419Z" fill="#F18140"/>
<path d="M34.9836 92.1492C34.2652 92.8676 33.4229 93.2639 32.5807 93.2639C31.9614 93.2639 31.4907 93.0905 30.9705 92.5455C34.3643 91.1831 36.569 88.1114 36.569 84.2717C36.569 79.0201 32.4321 75.2052 26.7841 75.2052C21.1361 75.2052 16.9992 79.0201 16.9992 84.2717C16.9992 88.7307 19.9966 92.174 24.3564 93.0905C27.4777 96.3604 29.3851 97.3265 32.4568 97.3265C34.5377 97.3265 36.2965 96.5586 37.5103 95.1218L34.9836 92.1492ZM26.7841 79.9366C28.9392 79.9366 30.6733 81.5716 30.6733 84.2717C30.6733 86.9719 28.9392 88.6068 26.7841 88.6068C24.6289 88.6068 22.8949 86.9719 22.8949 84.2717C22.8949 81.5716 24.6289 79.9366 26.7841 79.9366ZM46.9894 93.3382C52.3154 93.3382 55.4367 90.3408 55.4367 85.1387V75.6015H49.6896V84.9653C49.6896 87.6159 48.6739 88.6068 47.039 88.6068C45.404 88.6068 44.3884 87.6159 44.3884 84.9653V75.6015H38.5422V85.1387C38.5422 90.3408 41.6635 93.3382 46.9894 93.3382ZM70.7341 92.9419H76.7784L69.1982 75.6015H63.4512L55.8709 92.9419H61.8162L62.9805 89.9197H69.5698L70.7341 92.9419ZM64.5907 85.7085L66.2752 81.3486L67.9596 85.7085H64.5907ZM84.1769 93.3382C89.5524 93.3382 92.2526 90.6629 92.2526 87.4921C92.2526 81.1009 82.6658 82.8349 82.6658 80.7541C82.6658 80.1596 83.2108 79.6641 84.9201 79.6641C86.4312 79.6641 88.0413 80.0853 89.7506 80.9523L91.5094 76.7163C89.7011 75.7006 87.2982 75.2052 84.9696 75.2052C79.5941 75.2052 76.894 77.831 76.894 81.0514C76.894 87.5168 86.4807 85.758 86.4807 87.938C86.4807 88.5325 85.8862 88.8793 84.2265 88.8793C82.319 88.8793 80.1391 88.26 78.5042 87.2939L76.6215 91.5547C78.3555 92.6199 81.2786 93.3382 84.1769 93.3382ZM105.239 75.6015V81.745H99.8384V75.6015H93.9922V92.9419H99.8384V86.5507H105.239V92.9419H111.085V75.6015H105.239Z" fill="#FFB304"/>
</svg>
