<svg width="52" height="42" viewBox="0 0 52 42" fill="none" xmlns="http://www.w3.org/2000/svg">
<path d="M2.03418 36.4715H18.7092V39.1431H11.2085C10.6201 39.1431 10.1387 39.595 10.1387 40.1473C10.1387 40.6996 10.6201 41.1515 11.2085 41.1515L41.1675 41.1519C41.756 41.1519 42.2373 40.7 42.2373 40.1477C42.2373 39.5954 41.756 39.1435 41.1675 39.1435L33.6669 39.1431V36.4715H50.3419C50.9303 36.4715 51.4117 36.0196 51.4117 35.4673L51.4121 1.94791C51.4121 1.39559 50.9307 0.943726 50.3423 0.943726H2.03463C1.44622 0.943726 0.964844 1.39559 0.964844 1.94791V35.4673C0.964396 36.0246 1.44622 36.4715 2.03463 36.4715H2.03418ZM31.5266 39.1482H20.8485V36.4765H31.5266V39.1482ZM3.10374 2.95155H49.2666V34.4619L3.10374 34.4623V2.95155Z" fill="#F08140"/>
<path d="M44.5513 5.85791H6.73838C6.28915 5.85791 5.92163 6.17488 5.92163 6.56232V31.3615C5.92163 31.7489 6.28915 32.0659 6.73838 32.0659H44.5513C45.0005 32.0659 45.3681 31.7489 45.3681 31.3615L45.3684 6.56307C45.3684 6.17209 45.0047 5.85837 44.5513 5.85837V5.85791ZM29.5291 24.0938L20.6824 17.1898C20.4006 16.9678 19.9757 16.9468 19.6612 17.137L7.55514 24.5167V14.6359H43.7349V21.9561L38.4987 19.05C38.2169 18.8949 37.8532 18.9019 37.5797 19.0677L29.7375 23.897C29.6562 23.9531 29.5827 24.02 29.5293 24.094L29.5291 24.0938ZM43.7347 7.26642V13.2266H7.55496V7.26642H43.7347ZM7.55496 26.2421L20.0697 18.6085L35.5042 30.6555H7.55496V26.2421ZM37.9425 30.6558L30.7254 25.0232L38.0814 20.4897L43.7381 23.6282V30.6558H37.9425Z" fill="#F08140"/>
<path d="M9.82385 12.2644H25.5054C26.5064 12.2644 27.3195 11.3511 27.3195 10.226C27.3195 9.10131 26.5067 8.18762 25.5054 8.18762H9.82385C8.82291 8.18762 8.00977 9.10093 8.00977 10.226C8.00977 11.3507 8.82578 12.2644 9.82385 12.2644ZM9.82385 9.62068H25.5054C25.8019 9.62068 26.0442 9.89294 26.0442 10.2261C26.0442 10.5592 25.8019 10.8315 25.5054 10.8315H9.82385C9.52738 10.8315 9.28508 10.5592 9.28508 10.2261C9.28508 9.89294 9.52738 9.62068 9.82385 9.62068Z" fill="#F08140"/>
<path d="M27.2153 16.341C25.2572 16.341 23.6653 18.1041 23.6653 20.2729C23.6653 21.03 23.8587 21.7606 24.2281 22.3955C24.3593 22.6212 24.5839 22.7473 24.8082 22.7473C24.936 22.7473 25.0638 22.7092 25.1811 22.625C25.5023 22.3955 25.5957 21.9252 25.3884 21.5695C25.1638 21.183 25.0464 20.7358 25.0464 20.2728C25.0464 18.9493 26.0203 17.8707 27.2153 17.8707C27.7955 17.8707 28.3377 18.1194 28.7485 18.5744C29.0179 18.8728 29.4564 18.8728 29.7258 18.5744C29.9953 18.276 29.9953 17.7903 29.7258 17.4919C29.0558 16.7501 28.1614 16.341 27.2153 16.341Z" fill="#F08140"/>
</svg>
