<svg width="29" height="28" viewBox="0 0 29 28" fill="none" xmlns="http://www.w3.org/2000/svg">
<path d="M14.9072 0.22522C7.13957 0.22522 0.84082 6.47397 0.84082 14.1824C0.84082 20.3492 4.87127 25.5809 10.4603 27.4265C11.1633 27.5556 11.4214 27.1237 11.4214 26.755C11.4214 26.4223 11.4083 25.3227 11.4024 24.1565C7.48896 25.0008 6.66321 22.5097 6.66321 22.5097C6.02335 20.8964 5.1014 20.4675 5.1014 20.4675C3.82521 19.6012 5.1976 19.619 5.1976 19.619C6.61015 19.7175 7.35393 21.0573 7.35393 21.0573C8.60849 23.1911 10.6446 22.5742 11.4473 22.2176C11.5735 21.3154 11.9381 20.6998 12.3403 20.3513C9.21603 19.9983 5.93156 18.8015 5.93156 13.4535C5.93156 11.9298 6.48107 10.6846 7.38096 9.70721C7.23489 9.35561 6.75345 7.93608 7.5172 6.01357C7.5172 6.01357 8.69841 5.63843 11.3865 7.44426C12.5084 7.13492 13.7118 6.97992 14.9072 6.97466C16.1027 6.97992 17.3069 7.13492 18.4311 7.44426C21.116 5.63843 22.2955 6.01357 22.2955 6.01357C23.0612 7.93608 22.5795 9.35561 22.4334 9.70721C23.3353 10.6846 23.8811 11.9297 23.8811 13.4535C23.8811 18.8142 20.5904 19.9946 17.4582 20.3401C17.9627 20.7733 18.4122 21.6227 18.4122 22.9248C18.4122 24.7922 18.3959 26.2953 18.3959 26.755C18.3959 27.1264 18.6491 27.5617 19.3622 27.4246C24.9482 25.577 28.9736 20.3471 28.9736 14.1824C28.9736 6.47397 22.6757 0.22522 14.9072 0.22522Z" fill="#FFB304"/>
</svg>
