<svg width="44" height="44" viewBox="0 0 44 44" fill="none" xmlns="http://www.w3.org/2000/svg">
<rect x="0.648438" y="0.214478" width="42.9736" height="42.9736" rx="8.09092" fill="white"/>
<path d="M22.135 6.35376C13.3772 6.35376 6.27563 13.399 6.27563 22.09C6.27563 29.0428 10.8198 34.9414 17.1213 37.0222C17.9138 37.1678 18.2049 36.6808 18.2049 36.2651C18.2049 35.89 18.1901 34.6502 18.1834 33.3354C13.7712 34.2873 12.8402 31.4787 12.8402 31.4787C12.1187 29.6598 11.0793 29.1762 11.0793 29.1762C9.64043 28.1995 11.1877 28.2195 11.1877 28.2195C12.7803 28.3306 13.6189 29.8412 13.6189 29.8412C15.0334 32.2469 17.329 31.5514 18.234 31.1494C18.3763 30.1322 18.7874 29.4381 19.2409 29.0451C15.7184 28.6471 12.0153 27.2978 12.0153 21.2682C12.0153 19.5502 12.6348 18.1463 13.6494 17.0444C13.4847 16.6479 12.9419 15.0475 13.803 12.8799C13.803 12.8799 15.1348 12.457 18.1655 14.493C19.4304 14.1442 20.7872 13.9694 22.135 13.9635C23.4828 13.9694 24.8406 14.1442 26.108 14.493C29.1351 12.457 30.465 12.8799 30.465 12.8799C31.3282 15.0475 30.7852 16.6479 30.6205 17.0444C31.6373 18.1463 32.2527 19.5501 32.2527 21.2682C32.2527 27.3121 28.5426 28.6431 25.0111 29.0326C25.5799 29.5209 26.0868 30.4786 26.0868 31.9467C26.0868 34.0522 26.0684 35.7468 26.0684 36.2651C26.0684 36.6839 26.3538 37.1746 27.1578 37.0201C33.4558 34.9369 37.9943 29.0405 37.9943 22.09C37.9943 13.399 30.8937 6.35376 22.135 6.35376Z" fill="#232323"/>
</svg>
