<svg width="563" height="442" viewBox="0 0 563 442" fill="none" xmlns="http://www.w3.org/2000/svg">
<g clip-path="url(#clip0_38_523)">
<path d="M446.671 317.639C446.344 317.639 446.079 317.372 446.079 317.044V314.665C446.079 314.337 446.344 314.07 446.671 314.07C446.997 314.07 447.262 314.337 447.262 314.665V317.044C447.262 317.372 446.997 317.639 446.671 317.639ZM446.671 310.502C446.344 310.502 446.079 310.236 446.079 309.907V307.528C446.079 307.2 446.344 306.934 446.671 306.934C446.997 306.934 447.262 307.2 447.262 307.528V309.907C447.262 310.236 446.997 310.502 446.671 310.502ZM446.671 303.365C446.344 303.365 446.079 303.099 446.079 302.771V300.392C446.079 300.064 446.344 299.797 446.671 299.797C446.997 299.797 447.262 300.064 447.262 300.392V302.771C447.262 303.099 446.997 303.365 446.671 303.365ZM446.671 296.229C446.344 296.229 446.079 295.962 446.079 295.634V293.255C446.079 292.927 446.344 292.66 446.671 292.66C446.997 292.66 447.262 292.927 447.262 293.255V295.634C447.262 295.962 446.997 296.229 446.671 296.229ZM446.671 289.092C446.344 289.092 446.079 288.826 446.079 288.497V286.119C446.079 285.79 446.344 285.524 446.671 285.524C446.997 285.524 447.262 285.79 447.262 286.119V288.497C447.262 288.826 446.997 289.092 446.671 289.092ZM446.569 281.96C446.28 281.96 446.027 281.749 445.984 281.454C445.875 280.719 445.677 279.998 445.39 279.313C445.263 279.011 445.405 278.661 445.705 278.535C446.006 278.406 446.353 278.549 446.479 278.851C446.803 279.627 447.03 280.445 447.153 281.28C447.201 281.606 446.978 281.908 446.654 281.956C446.626 281.96 446.595 281.963 446.566 281.963L446.569 281.96ZM443.107 275.923C442.977 275.923 442.847 275.88 442.738 275.792C442.158 275.328 441.524 274.938 440.852 274.631C440.554 274.495 440.421 274.143 440.556 273.844C440.691 273.544 441.041 273.411 441.339 273.546C442.101 273.894 442.821 274.334 443.476 274.862C443.732 275.066 443.774 275.44 443.568 275.697C443.452 275.844 443.28 275.92 443.105 275.92L443.107 275.923ZM436.481 273.848H434.115C433.789 273.848 433.524 273.582 433.524 273.254C433.524 272.925 433.789 272.659 434.115 272.659H436.481C436.808 272.659 437.073 272.925 437.073 273.254C437.073 273.582 436.808 273.848 436.481 273.848ZM429.383 273.848H427.016C426.69 273.848 426.425 273.582 426.425 273.254C426.425 272.925 426.69 272.659 427.016 272.659H429.383C429.709 272.659 429.974 272.925 429.974 273.254C429.974 273.582 429.709 273.848 429.383 273.848ZM422.433 272.873C422.345 272.873 422.255 272.854 422.173 272.811C421.422 272.44 420.717 271.971 420.081 271.424C419.832 271.21 419.804 270.834 420.017 270.587C420.23 270.337 420.604 270.309 420.85 270.523C421.413 271.008 422.035 271.42 422.696 271.748C422.989 271.893 423.11 272.25 422.965 272.545C422.861 272.754 422.653 272.878 422.435 272.878L422.433 272.873ZM417.767 267.718C417.528 267.718 417.303 267.573 417.213 267.335C416.915 266.548 416.716 265.725 416.621 264.885C416.586 264.559 416.818 264.264 417.142 264.228C417.468 264.19 417.76 264.426 417.795 264.752C417.878 265.491 418.053 266.217 418.316 266.912C418.432 267.218 418.278 267.563 417.972 267.68C417.904 267.706 417.833 267.718 417.762 267.718H417.767ZM417.151 260.658C416.825 260.658 416.56 260.391 416.56 260.063V257.684C416.56 257.356 416.825 257.089 417.151 257.089C417.478 257.089 417.743 257.356 417.743 257.684V260.063C417.743 260.391 417.478 260.658 417.151 260.658ZM417.151 253.521C416.825 253.521 416.56 253.254 416.56 252.926V250.547C416.56 250.219 416.825 249.953 417.151 249.953C417.478 249.953 417.743 250.219 417.743 250.547V252.926C417.743 253.254 417.478 253.521 417.151 253.521ZM417.151 246.384C416.825 246.384 416.56 246.118 416.56 245.79V243.411C416.56 243.082 416.825 242.816 417.151 242.816C417.478 242.816 417.743 243.082 417.743 243.411V245.79C417.743 246.118 417.478 246.384 417.151 246.384ZM417.151 239.248C416.825 239.248 416.56 238.981 416.56 238.653V236.274C416.56 235.946 416.825 235.679 417.151 235.679C417.478 235.679 417.743 235.946 417.743 236.274V238.653C417.743 238.981 417.478 239.248 417.151 239.248ZM417.151 232.111C416.825 232.111 416.56 231.845 416.56 231.516V229.137C416.56 228.809 416.825 228.543 417.151 228.543C417.478 228.543 417.743 228.809 417.743 229.137V231.516C417.743 231.845 417.478 232.111 417.151 232.111ZM417.151 224.974C416.825 224.974 416.56 224.708 416.56 224.38V222.001C416.56 221.673 416.825 221.406 417.151 221.406C417.478 221.406 417.743 221.673 417.743 222.001V224.38C417.743 224.708 417.478 224.974 417.151 224.974ZM417.151 217.838C416.825 217.838 416.56 217.571 416.56 217.243V214.864C416.56 214.536 416.825 214.27 417.151 214.27C417.478 214.27 417.743 214.536 417.743 214.864V217.243C417.743 217.571 417.478 217.838 417.151 217.838Z" fill="#FFEDCA"/>
<path d="M115.443 394.816H30.312C29.9855 394.816 29.7205 394.55 29.7205 394.222C29.7205 393.893 29.9855 393.627 30.312 393.627H115.199L157.562 351.038C157.794 350.805 158.168 350.805 158.4 351.038C158.632 351.271 158.632 351.647 158.4 351.88L115.864 394.643C115.753 394.755 115.604 394.816 115.445 394.816H115.443Z" fill="#FFEDCA"/>
<path d="M11.4267 396.465C11.3675 396.465 11.306 396.465 11.2445 396.465C10.9179 396.46 10.6576 396.189 10.6624 395.861C10.6671 395.532 10.9392 395.271 11.2634 395.276C11.3249 395.276 11.3865 395.278 11.448 395.276H13.6178C13.9444 395.276 14.2094 395.542 14.2094 395.87C14.2094 396.199 13.9444 396.465 13.6178 396.465H11.4243H11.4267ZM20.719 396.465H18.3527C18.0262 396.465 17.7612 396.199 17.7612 395.87C17.7612 395.542 18.0262 395.276 18.3527 395.276H20.719C21.0455 395.276 21.3106 395.542 21.3106 395.87C21.3106 396.199 21.0455 396.465 20.719 396.465ZM6.68942 395.363C6.60187 395.363 6.51432 395.344 6.42913 395.304C5.68376 394.938 4.97625 394.488 4.32553 393.967C4.06997 393.763 4.02738 393.389 4.23088 393.132C4.43437 392.875 4.80588 392.832 5.06143 393.037C5.6459 393.503 6.28006 393.908 6.94735 394.236C7.24076 394.381 7.36144 394.736 7.21947 395.03C7.11772 395.242 6.90712 395.363 6.68706 395.363H6.68942ZM1.73684 390.432C1.51914 390.432 1.31091 390.311 1.20679 390.104C0.83529 389.357 0.541874 388.567 0.340742 387.756C0.262655 387.437 0.454322 387.114 0.771401 387.035C1.08848 386.954 1.41029 387.149 1.48838 387.468C1.66821 388.194 1.93087 388.903 2.26451 389.573C2.41122 389.866 2.29291 390.225 1.99949 390.37C1.91431 390.413 1.82439 390.434 1.73447 390.434L1.73684 390.432ZM0.591565 383.476C0.265021 383.476 0 383.21 0 382.882V380.503C0 380.174 0.265021 379.908 0.591565 379.908C0.91811 379.908 1.18313 380.174 1.18313 380.503V382.882C1.18313 383.21 0.91811 383.476 0.591565 383.476ZM0.591565 376.34C0.265021 376.34 0 376.073 0 375.745V373.366C0 373.038 0.265021 372.771 0.591565 372.771C0.91811 372.771 1.18313 373.038 1.18313 373.366V375.745C1.18313 376.073 0.91811 376.34 0.591565 376.34ZM0.591565 369.203C0.265021 369.203 0 368.937 0 368.608V366.229C0 365.901 0.265021 365.635 0.591565 365.635C0.91811 365.635 1.18313 365.901 1.18313 366.229V368.608C1.18313 368.937 0.91811 369.203 0.591565 369.203ZM0.591565 362.066C0.265021 362.066 0 361.8 0 361.472V359.093C0 358.765 0.265021 358.498 0.591565 358.498C0.91811 358.498 1.18313 358.765 1.18313 359.093V361.472C1.18313 361.8 0.91811 362.066 0.591565 362.066ZM0.591565 354.93C0.265021 354.93 0 354.663 0 354.335V351.956C0 351.628 0.265021 351.362 0.591565 351.362C0.91811 351.362 1.18313 351.628 1.18313 351.956V354.335C1.18313 354.663 0.91811 354.93 0.591565 354.93ZM0.591565 347.793C0.265021 347.793 0 347.527 0 347.198V344.82C0 344.491 0.265021 344.225 0.591565 344.225C0.91811 344.225 1.18313 344.491 1.18313 344.82V347.198C1.18313 347.527 0.91811 347.793 0.591565 347.793ZM0.591565 340.657C0.265021 340.657 0 340.39 0 340.062V337.683C0 337.355 0.265021 337.088 0.591565 337.088C0.91811 337.088 1.18313 337.355 1.18313 337.683V340.062C1.18313 340.39 0.91811 340.657 0.591565 340.657ZM0.591565 333.52C0.265021 333.52 0 333.254 0 332.925V330.546C0 330.218 0.265021 329.952 0.591565 329.952C0.91811 329.952 1.18313 330.218 1.18313 330.546V332.925C1.18313 333.254 0.91811 333.52 0.591565 333.52ZM0.591565 326.383C0.265021 326.383 0 326.117 0 325.789V323.41C0 323.081 0.265021 322.815 0.591565 322.815C0.91811 322.815 1.18313 323.081 1.18313 323.41V325.789C1.18313 326.117 0.91811 326.383 0.591565 326.383ZM0.591565 319.247C0.265021 319.247 0 318.98 0 318.652V316.273C0 315.945 0.265021 315.678 0.591565 315.678C0.91811 315.678 1.18313 315.945 1.18313 316.273V318.652C1.18313 318.98 0.91811 319.247 0.591565 319.247ZM0.591565 312.11C0.265021 312.11 0 311.844 0 311.515V309.137C0 308.808 0.265021 308.542 0.591565 308.542C0.91811 308.542 1.18313 308.808 1.18313 309.137V311.515C1.18313 311.844 0.91811 312.11 0.591565 312.11ZM0.591565 304.974C0.265021 304.974 0 304.707 0 304.379V302C0 301.672 0.265021 301.405 0.591565 301.405C0.91811 301.405 1.18313 301.672 1.18313 302V304.379C1.18313 304.707 0.91811 304.974 0.591565 304.974ZM0.591565 297.837C0.265021 297.837 0 297.57 0 297.242V294.863C0 294.535 0.265021 294.269 0.591565 294.269C0.91811 294.269 1.18313 294.535 1.18313 294.863V297.242C1.18313 297.57 0.91811 297.837 0.591565 297.837ZM0.591565 290.7C0.265021 290.7 0 290.434 0 290.106V287.727C0 287.398 0.265021 287.132 0.591565 287.132C0.91811 287.132 1.18313 287.398 1.18313 287.727V290.106C1.18313 290.434 0.91811 290.7 0.591565 290.7ZM0.591565 283.564C0.265021 283.564 0 283.297 0 282.969V280.59C0 280.262 0.265021 279.995 0.591565 279.995C0.91811 279.995 1.18313 280.262 1.18313 280.59V282.969C1.18313 283.297 0.91811 283.564 0.591565 283.564ZM0.591565 276.427C0.265021 276.427 0 276.161 0 275.832V273.453C0 273.125 0.265021 272.859 0.591565 272.859C0.91811 272.859 1.18313 273.125 1.18313 273.453V275.832C1.18313 276.161 0.91811 276.427 0.591565 276.427ZM0.591565 269.29C0.265021 269.29 0 269.024 0 268.696V266.317C0 265.989 0.265021 265.722 0.591565 265.722C0.91811 265.722 1.18313 265.989 1.18313 266.317V268.696C1.18313 269.024 0.91811 269.29 0.591565 269.29ZM0.591565 262.154C0.265021 262.154 0 261.887 0 261.559V259.18C0 258.852 0.265021 258.586 0.591565 258.586C0.91811 258.586 1.18313 258.852 1.18313 259.18V261.559C1.18313 261.887 0.91811 262.154 0.591565 262.154ZM0.591565 255.017C0.265021 255.017 0 254.751 0 254.422V252.044C0 251.715 0.265021 251.449 0.591565 251.449C0.91811 251.449 1.18313 251.715 1.18313 252.044V254.422C1.18313 254.751 0.91811 255.017 0.591565 255.017ZM0.591565 247.881C0.265021 247.881 0 247.614 0 247.286V244.907C0 244.579 0.265021 244.312 0.591565 244.312C0.91811 244.312 1.18313 244.579 1.18313 244.907V247.286C1.18313 247.614 0.91811 247.881 0.591565 247.881ZM1.55937 240.894C1.47181 240.894 1.3819 240.875 1.29908 240.832C1.00566 240.687 0.884982 240.33 1.02932 240.035C1.39846 239.281 1.86225 238.572 2.40649 237.93C2.61945 237.68 2.99096 237.651 3.23941 237.863C3.48787 238.077 3.51627 238.453 3.30567 238.703C2.82532 239.269 2.41595 239.895 2.08941 240.561C1.98529 240.77 1.77706 240.894 1.557 240.894H1.55937ZM6.68232 236.196C6.44333 236.196 6.21854 236.05 6.12862 235.813C6.01267 235.506 6.16411 235.163 6.46936 235.044C7.25259 234.744 8.07132 234.542 8.90661 234.447C9.23079 234.411 9.52421 234.645 9.56207 234.97C9.59993 235.296 9.36567 235.591 9.04149 235.629C8.30558 235.713 7.5815 235.891 6.89292 236.155C6.8243 236.181 6.75331 236.196 6.68232 236.196ZM44.4668 235.572H42.1005C41.774 235.572 41.509 235.306 41.509 234.978C41.509 234.649 41.774 234.383 42.1005 234.383H44.4668C44.7933 234.383 45.0584 234.649 45.0584 234.978C45.0584 235.306 44.7933 235.572 44.4668 235.572ZM37.368 235.572H35.0017C34.6752 235.572 34.4102 235.306 34.4102 234.978C34.4102 234.649 34.6752 234.383 35.0017 234.383H37.368C37.6946 234.383 37.9596 234.649 37.9596 234.978C37.9596 235.306 37.6946 235.572 37.368 235.572ZM30.2692 235.572H27.903C27.5764 235.572 27.3114 235.306 27.3114 234.978C27.3114 234.649 27.5764 234.383 27.903 234.383H30.2692C30.5958 234.383 30.8608 234.649 30.8608 234.978C30.8608 235.306 30.5958 235.572 30.2692 235.572ZM23.1704 235.572H20.8042C20.4776 235.572 20.2126 235.306 20.2126 234.978C20.2126 234.649 20.4776 234.383 20.8042 234.383H23.1704C23.497 234.383 23.762 234.649 23.762 234.978C23.762 235.306 23.497 235.572 23.1704 235.572ZM16.0717 235.572H13.7054C13.3788 235.572 13.1138 235.306 13.1138 234.978C13.1138 234.649 13.3788 234.383 13.7054 234.383H16.0717C16.3982 234.383 16.6632 234.649 16.6632 234.978C16.6632 235.306 16.3982 235.572 16.0717 235.572ZM49.1875 235.396C48.9106 235.396 48.6622 235.199 48.6078 234.916C48.5439 234.592 48.7545 234.281 49.0739 234.219C49.8004 234.076 50.5055 233.84 51.1728 233.522C51.4686 233.381 51.8211 233.507 51.9607 233.802C52.1004 234.1 51.9773 234.454 51.6815 234.595C50.9243 234.959 50.1245 235.223 49.3011 235.387C49.2632 235.394 49.2253 235.399 49.1875 235.399V235.396ZM55.0251 231.638C54.9044 231.638 54.7837 231.602 54.6772 231.523C54.4122 231.331 54.353 230.96 54.5447 230.693C54.9801 230.089 55.3374 229.435 55.6095 228.745C55.7302 228.44 56.0733 228.288 56.3762 228.412C56.6791 228.533 56.8281 228.878 56.7075 229.185C56.3999 229.968 55.9929 230.71 55.5007 231.395C55.3847 231.554 55.2049 231.64 55.0203 231.64L55.0251 231.638ZM56.8234 224.884C56.4969 224.884 56.2319 224.618 56.2319 224.289V221.91C56.2319 221.582 56.4969 221.316 56.8234 221.316C57.15 221.316 57.415 221.582 57.415 221.91V224.289C57.415 224.618 57.15 224.884 56.8234 224.884ZM56.8234 217.747C56.4969 217.747 56.2319 217.481 56.2319 217.153V214.774C56.2319 214.446 56.4969 214.179 56.8234 214.179C57.15 214.179 57.415 214.446 57.415 214.774V217.153C57.415 217.481 57.15 217.747 56.8234 217.747ZM56.8234 210.611C56.4969 210.611 56.2319 210.344 56.2319 210.016V207.637C56.2319 207.309 56.4969 207.042 56.8234 207.042C57.15 207.042 57.415 207.309 57.415 207.637V210.016C57.415 210.344 57.15 210.611 56.8234 210.611ZM56.8234 203.474C56.4969 203.474 56.2319 203.208 56.2319 202.879V200.501C56.2319 200.172 56.4969 199.906 56.8234 199.906C57.15 199.906 57.415 200.172 57.415 200.501V202.879C57.415 203.208 57.15 203.474 56.8234 203.474ZM56.8234 196.338C56.4969 196.338 56.2319 196.071 56.2319 195.743V193.364C56.2319 193.036 56.4969 192.769 56.8234 192.769C57.15 192.769 57.415 193.036 57.415 193.364V195.743C57.415 196.071 57.15 196.338 56.8234 196.338ZM56.8234 189.201C56.4969 189.201 56.2319 188.935 56.2319 188.606V186.227C56.2319 185.899 56.4969 185.633 56.8234 185.633C57.15 185.633 57.415 185.899 57.415 186.227V188.606C57.415 188.935 57.15 189.201 56.8234 189.201ZM56.8234 182.064C56.4969 182.064 56.2319 181.798 56.2319 181.47V179.091C56.2319 178.762 56.4969 178.496 56.8234 178.496C57.15 178.496 57.415 178.762 57.415 179.091V181.47C57.415 181.798 57.15 182.064 56.8234 182.064ZM56.8234 174.928C56.4969 174.928 56.2319 174.661 56.2319 174.333V171.954C56.2319 171.626 56.4969 171.359 56.8234 171.359C57.15 171.359 57.415 171.626 57.415 171.954V174.333C57.415 174.661 57.15 174.928 56.8234 174.928ZM56.8234 167.791C56.4969 167.791 56.2319 167.525 56.2319 167.196V164.818C56.2319 164.489 56.4969 164.223 56.8234 164.223C57.15 164.223 57.415 164.489 57.415 164.818V167.196C57.415 167.525 57.15 167.791 56.8234 167.791ZM56.8234 160.654C56.4969 160.654 56.2319 160.388 56.2319 160.06V157.681C56.2319 157.353 56.4969 157.086 56.8234 157.086C57.15 157.086 57.415 157.353 57.415 157.681V160.06C57.415 160.388 57.15 160.654 56.8234 160.654ZM56.8234 153.518C56.4969 153.518 56.2319 153.251 56.2319 152.923V150.544C56.2319 150.216 56.4969 149.95 56.8234 149.95C57.15 149.95 57.415 150.216 57.415 150.544V152.923C57.415 153.251 57.15 153.518 56.8234 153.518ZM56.8234 146.381C56.4969 146.381 56.2319 146.115 56.2319 145.787V143.408C56.2319 143.079 56.4969 142.813 56.8234 142.813C57.15 142.813 57.415 143.079 57.415 143.408V145.787C57.415 146.115 57.15 146.381 56.8234 146.381ZM56.8234 139.245C56.4969 139.245 56.2319 138.978 56.2319 138.65V136.271C56.2319 135.943 56.4969 135.676 56.8234 135.676C57.15 135.676 57.415 135.943 57.415 136.271V138.65C57.415 138.978 57.15 139.245 56.8234 139.245Z" fill="#FFEDCA"/>
<path d="M395.138 409.663H392.771C392.445 409.663 392.18 409.397 392.18 409.068C392.18 408.74 392.445 408.474 392.771 408.474H395.138C395.464 408.474 395.729 408.74 395.729 409.068C395.729 409.397 395.464 409.663 395.138 409.663ZM388.039 409.663H385.672C385.346 409.663 385.081 409.397 385.081 409.068C385.081 408.74 385.346 408.474 385.672 408.474H388.039C388.365 408.474 388.63 408.74 388.63 409.068C388.63 409.397 388.365 409.663 388.039 409.663ZM380.94 409.663H378.574C378.247 409.663 377.982 409.397 377.982 409.068C377.982 408.74 378.247 408.474 378.574 408.474H380.94C381.267 408.474 381.532 408.74 381.532 409.068C381.532 409.397 381.267 409.663 380.94 409.663ZM373.841 409.663H371.475C371.148 409.663 370.883 409.397 370.883 409.068C370.883 408.74 371.148 408.474 371.475 408.474H373.841C374.168 408.474 374.433 408.74 374.433 409.068C374.433 409.397 374.168 409.663 373.841 409.663ZM366.742 409.663H364.376C364.05 409.663 363.785 409.397 363.785 409.068C363.785 408.74 364.05 408.474 364.376 408.474H366.742C367.069 408.474 367.334 408.74 367.334 409.068C367.334 409.397 367.069 409.663 366.742 409.663ZM359.651 409.561C359.622 409.561 359.594 409.561 359.563 409.554C358.733 409.43 357.919 409.201 357.147 408.876C356.847 408.747 356.705 408.4 356.832 408.098C356.96 407.796 357.306 407.653 357.606 407.781C358.288 408.069 359.005 408.271 359.736 408.378C360.06 408.426 360.282 408.728 360.235 409.054C360.193 409.349 359.939 409.561 359.651 409.561ZM353.645 406.08C353.472 406.08 353.3 406.004 353.181 405.857C352.658 405.198 352.218 404.475 351.873 403.706C351.738 403.407 351.873 403.054 352.169 402.919C352.467 402.783 352.817 402.919 352.952 403.216C353.255 403.892 353.643 404.529 354.107 405.112C354.31 405.369 354.27 405.743 354.014 405.947C353.905 406.035 353.775 406.078 353.645 406.078V406.08ZM351.582 399.42C351.255 399.42 350.99 399.153 350.99 398.825V396.446C350.99 396.118 351.255 395.851 351.582 395.851C351.908 395.851 352.173 396.118 352.173 396.446V398.825C352.173 399.153 351.908 399.42 351.582 399.42ZM351.582 392.283C351.255 392.283 350.99 392.016 350.99 391.688V389.309C350.99 388.981 351.255 388.715 351.582 388.715C351.908 388.715 352.173 388.981 352.173 389.309V391.688C352.173 392.016 351.908 392.283 351.582 392.283ZM350.612 385.296C350.394 385.296 350.183 385.175 350.082 384.963C349.755 384.297 349.346 383.674 348.863 383.108C348.65 382.858 348.681 382.482 348.927 382.27C349.173 382.059 349.549 382.087 349.76 382.334C350.306 382.977 350.77 383.683 351.139 384.437C351.284 384.732 351.163 385.089 350.87 385.234C350.784 385.277 350.697 385.296 350.609 385.296H350.612ZM345.484 380.603C345.413 380.603 345.342 380.591 345.273 380.562C344.585 380.298 343.861 380.122 343.125 380.039C342.801 380.001 342.566 379.708 342.604 379.382C342.642 379.056 342.935 378.823 343.257 378.859C344.093 378.954 344.911 379.154 345.694 379.454C346 379.57 346.154 379.915 346.038 380.222C345.948 380.46 345.723 380.605 345.484 380.605V380.603ZM338.461 379.982H336.095C335.768 379.982 335.503 379.715 335.503 379.387C335.503 379.059 335.768 378.792 336.095 378.792H338.461C338.787 378.792 339.052 379.059 339.052 379.387C339.052 379.715 338.787 379.982 338.461 379.982ZM331.362 379.982H328.996C328.669 379.982 328.404 379.715 328.404 379.387C328.404 379.059 328.669 378.792 328.996 378.792H331.362C331.689 378.792 331.954 379.059 331.954 379.387C331.954 379.715 331.689 379.982 331.362 379.982ZM324.263 379.982H321.897C321.57 379.982 321.305 379.715 321.305 379.387C321.305 379.059 321.57 378.792 321.897 378.792H324.263C324.59 378.792 324.855 379.059 324.855 379.387C324.855 379.715 324.59 379.982 324.263 379.982ZM317.164 379.982H314.798C314.472 379.982 314.207 379.715 314.207 379.387C314.207 379.059 314.472 378.792 314.798 378.792H317.164C317.491 378.792 317.756 379.059 317.756 379.387C317.756 379.715 317.491 379.982 317.164 379.982ZM310.066 379.982H307.699C307.373 379.982 307.108 379.715 307.108 379.387C307.108 379.059 307.373 378.792 307.699 378.792H310.066C310.392 378.792 310.657 379.059 310.657 379.387C310.657 379.715 310.392 379.982 310.066 379.982ZM302.967 379.982H302.281C301.684 379.982 301.088 379.929 300.506 379.825C300.184 379.768 299.969 379.458 300.028 379.135C300.087 378.811 300.392 378.597 300.714 378.654C301.228 378.747 301.755 378.792 302.281 378.792H302.967C303.293 378.792 303.558 379.059 303.558 379.387C303.558 379.715 303.293 379.982 302.967 379.982ZM296.348 377.881C296.218 377.881 296.088 377.838 295.977 377.75C295.324 377.222 294.739 376.613 294.235 375.94C294.039 375.678 294.091 375.305 294.354 375.107C294.614 374.91 294.985 374.962 295.182 375.226C295.627 375.821 296.145 376.359 296.72 376.825C296.976 377.032 297.016 377.405 296.81 377.66C296.694 377.805 296.521 377.881 296.348 377.881ZM292.91 371.829C292.622 371.829 292.368 371.615 292.326 371.32C292.257 370.845 292.224 370.357 292.224 369.872V368.863C292.224 368.535 292.489 368.268 292.816 368.268C293.142 368.268 293.407 368.535 293.407 368.863V369.872C293.407 370.3 293.438 370.73 293.497 371.151C293.544 371.477 293.32 371.777 292.995 371.825C292.967 371.829 292.939 371.832 292.91 371.832V371.829ZM292.813 364.698C292.487 364.698 292.222 364.431 292.222 364.103V361.724C292.222 361.396 292.487 361.129 292.813 361.129C293.14 361.129 293.405 361.396 293.405 361.724V364.103C293.405 364.431 293.14 364.698 292.813 364.698ZM292.813 357.561C292.487 357.561 292.222 357.294 292.222 356.966V354.587C292.222 354.259 292.487 353.993 292.813 353.993C293.14 353.993 293.405 354.259 293.405 354.587V356.966C293.405 357.294 293.14 357.561 292.813 357.561Z" fill="#FFEDCA"/>
<path d="M552.735 217.074H290.435C290.108 217.074 289.843 216.808 289.843 216.479V51.6522C289.843 51.3239 290.108 51.0575 290.435 51.0575H562.408C562.735 51.0575 563 51.3239 563 51.6522V206.755C563 212.445 558.395 217.074 552.735 217.074ZM291.026 215.885H552.735C557.742 215.885 561.817 211.788 561.817 206.755V52.2469H291.026V215.885Z" fill="#FFB304"/>
<path d="M562.407 11.2922H290.434V51.6522H562.407V11.2922Z" fill="#FFB304"/>
<path d="M562.408 52.2469H290.435C290.108 52.2469 289.843 51.9805 289.843 51.6522V11.2922C289.843 10.9639 290.108 10.6975 290.435 10.6975H562.408C562.735 10.6975 563 10.9639 563 11.2922V51.6522C563 51.9805 562.735 52.2469 562.408 52.2469ZM291.026 51.0574H561.817V11.8869H291.026V51.0574Z" fill="#FFB304"/>
<path d="M311.739 38.1664C315.417 38.1664 318.398 35.1693 318.398 31.4722C318.398 27.7751 315.417 24.7781 311.739 24.7781C308.062 24.7781 305.081 27.7751 305.081 31.4722C305.081 35.1693 308.062 38.1664 311.739 38.1664Z" fill="#FFEDCA"/>
<path d="M331.421 38.1664C335.099 38.1664 338.08 35.1693 338.08 31.4722C338.08 27.7751 335.099 24.7781 331.421 24.7781C327.744 24.7781 324.763 27.7751 324.763 31.4722C324.763 35.1693 327.744 38.1664 331.421 38.1664Z" fill="#FFEDCA"/>
<path d="M351.107 38.1664C354.784 38.1664 357.765 35.1693 357.765 31.4722C357.765 27.7751 354.784 24.7781 351.107 24.7781C347.429 24.7781 344.448 27.7751 344.448 31.4722C344.448 35.1693 347.429 38.1664 351.107 38.1664Z" fill="#FFEDCA"/>
<path d="M144.129 365.323C117.095 347.486 98.5882 320.132 92.0171 288.3C85.446 256.468 91.6007 223.971 109.343 196.792C127.085 169.613 154.295 151.008 185.958 144.402C217.621 137.796 249.946 143.983 276.981 161.82C304.015 179.657 322.522 207.012 329.093 238.843C335.664 270.675 329.509 303.173 311.767 330.351C294.025 357.53 266.815 376.135 235.152 382.741C203.489 389.347 171.164 383.16 144.129 365.323ZM123.368 281.76C133.344 330.092 180.572 361.255 228.647 351.226C276.723 341.197 307.721 293.717 297.745 245.385C287.769 197.054 240.54 165.89 192.465 175.92C144.39 185.949 113.392 233.429 123.368 281.76Z" fill="#FFEDCA"/>
<path d="M210.307 385.915C186.843 385.915 163.874 379.063 143.803 365.82C116.636 347.895 98.0399 320.408 91.4381 288.421C84.8362 256.435 91.0192 223.778 108.849 196.466C126.679 169.154 154.021 150.459 185.838 143.822C217.654 137.184 250.139 143.4 277.306 161.325C304.473 179.25 323.069 206.738 329.671 238.724C336.273 270.711 330.09 303.368 312.26 330.68C294.43 357.991 267.088 376.687 235.271 383.324C226.961 385.058 218.601 385.915 210.307 385.915ZM144.452 364.826C171.354 382.577 203.523 388.734 235.03 382.161C266.539 375.588 293.614 357.073 311.271 330.028C328.928 302.982 335.052 270.642 328.514 238.967C321.976 207.29 303.559 180.071 276.657 162.32C249.755 144.569 217.586 138.414 186.079 144.985C154.57 151.558 127.495 170.072 109.838 197.118C92.1811 224.163 86.0572 256.504 92.5952 288.179C99.1331 319.856 117.55 347.075 144.452 364.826ZM210.53 353.702C204.732 353.702 198.944 353.129 193.202 351.982C181.836 349.713 171.134 345.302 161.394 338.875C151.655 332.449 143.373 324.333 136.778 314.753C129.949 304.831 125.242 293.771 122.786 281.882C112.744 233.229 143.948 185.433 192.343 175.337C240.737 165.241 288.28 196.611 298.323 245.264C300.777 257.156 300.836 269.183 298.495 281.018C296.236 292.444 291.851 303.204 285.457 312.995C279.064 322.786 270.992 331.113 261.463 337.742C251.596 344.608 240.593 349.339 228.766 351.806C222.709 353.069 216.616 353.702 210.53 353.702ZM210.577 174.635C204.64 174.635 198.618 175.239 192.582 176.5C144.826 186.463 114.033 233.626 123.943 281.639C126.366 293.374 131.009 304.286 137.748 314.075C144.255 323.529 152.428 331.538 162.04 337.88C171.652 344.222 182.213 348.573 193.429 350.814C205.042 353.134 216.85 353.077 228.523 350.641C240.196 348.207 251.05 343.537 260.787 336.762C270.19 330.22 278.157 322.004 284.466 312.341C290.774 302.678 295.102 292.061 297.331 280.785C299.638 269.11 299.582 257.239 297.159 245.504C288.503 203.562 251.601 174.635 210.572 174.635H210.577Z" fill="#FFEDCA"/>
<path d="M210.555 321.226C242.228 321.226 267.904 295.413 267.904 263.572C267.904 231.73 242.228 205.917 210.555 205.917C178.882 205.917 153.206 231.73 153.206 263.572C153.206 295.413 178.882 321.226 210.555 321.226Z" fill="#FFEDCA"/>
<path d="M235.152 382.741C243.81 380.936 249.371 372.417 247.575 363.713C245.779 355.008 237.305 349.418 228.647 351.224C180.572 361.253 133.344 330.09 123.368 281.758C113.391 233.427 144.389 185.947 192.465 175.917C240.54 165.888 287.768 197.051 297.745 245.383C299.541 254.087 308.014 259.677 316.672 257.872C325.33 256.066 330.891 247.548 329.095 238.843C322.524 207.012 304.018 179.657 276.983 161.82C249.948 143.983 217.623 137.796 185.96 144.402C154.297 151.008 127.087 169.613 109.345 196.792C91.6029 223.971 85.4482 256.468 92.0193 288.3C98.5904 320.132 117.097 347.486 144.132 365.323C171.166 383.16 203.492 389.347 235.155 382.741H235.152Z" fill="#FFB304"/>
<path d="M210.307 385.915C186.843 385.915 163.874 379.063 143.803 365.82C116.636 347.895 98.0399 320.408 91.4381 288.421C84.8362 256.435 91.0192 223.778 108.849 196.466C126.679 169.154 154.021 150.459 185.838 143.822C217.654 137.184 250.139 143.4 277.306 161.325C304.473 179.25 323.069 206.738 329.671 238.724C331.531 247.735 325.752 256.587 316.789 258.457C315.656 258.693 314.527 258.807 313.412 258.807C305.713 258.807 298.787 253.378 297.163 245.506C287.253 197.496 240.34 166.542 192.582 176.502C144.826 186.465 114.033 233.629 123.943 281.641C126.366 293.376 131.009 304.288 137.748 314.077C144.255 323.531 152.428 331.541 162.04 337.883C171.652 344.225 182.213 348.576 193.429 350.817C205.042 353.136 216.85 353.079 228.523 350.643C237.484 348.776 246.291 354.582 248.148 363.594C249.05 367.959 248.205 372.414 245.773 376.142C243.34 379.87 239.609 382.42 235.267 383.326C226.956 385.061 218.596 385.917 210.303 385.917L210.307 385.915ZM210.799 142.418C202.584 142.418 194.309 143.267 186.077 144.982C154.568 151.555 127.493 170.07 109.836 197.115C92.1787 224.161 86.0548 256.502 92.5928 288.176C99.1308 319.853 117.547 347.072 144.449 364.823C171.351 382.575 203.521 388.731 235.028 382.158C239.06 381.316 242.524 378.947 244.784 375.488C247.043 372.027 247.827 367.887 246.991 363.834C245.264 355.465 237.086 350.07 228.764 351.806C216.935 354.273 204.969 354.333 193.199 351.98C181.834 349.711 171.131 345.3 161.392 338.872C151.652 332.447 143.37 324.33 136.776 314.751C129.947 304.828 125.24 293.769 122.784 281.879C112.742 233.227 143.945 185.43 192.34 175.334C240.735 165.239 288.278 196.609 298.32 245.261C300.048 253.63 308.223 259.026 316.548 257.289C324.872 255.552 330.239 247.331 328.512 238.965C321.974 207.287 303.557 180.068 276.655 162.317C256.781 149.205 234.031 142.418 210.797 142.418H210.799Z" fill="#FFB304"/>
<path d="M123.368 281.758C113.392 233.427 144.39 185.947 192.465 175.917C211.783 171.888 231.362 174.288 249.087 182.859C257.054 186.71 266.621 183.342 270.452 175.332C274.286 167.323 270.933 157.705 262.965 153.853C238.848 142.192 212.221 138.924 185.958 144.402C154.295 151.008 127.085 169.613 109.343 196.792C91.6007 223.971 85.446 256.468 92.0171 288.3L123.368 281.761V281.758Z" fill="#FFEDCA"/>
<path d="M92.0178 288.895C91.9042 288.895 91.7906 288.861 91.6936 288.797C91.5635 288.712 91.4712 288.576 91.4381 288.421C84.8362 256.435 91.0192 223.778 108.849 196.466C126.679 169.154 154.021 150.459 185.838 143.822C212.229 138.317 238.986 141.6 263.222 153.32C267.218 155.252 270.226 158.635 271.693 162.841C273.16 167.047 272.909 171.576 270.985 175.594C269.064 179.612 265.701 182.635 261.516 184.11C257.33 185.585 252.827 185.333 248.83 183.399C231.223 174.885 211.774 172.499 192.584 176.503C144.828 186.465 114.036 233.629 123.946 281.642C123.977 281.796 123.946 281.958 123.861 282.089C123.775 282.22 123.641 282.312 123.487 282.346L92.1361 288.885C92.0959 288.892 92.0557 288.897 92.0154 288.897L92.0178 288.895ZM210.809 142.413C202.588 142.413 194.316 143.267 186.079 144.985C154.57 151.558 127.495 170.072 109.838 197.118C92.2899 223.999 86.1329 256.107 92.4769 287.596L122.668 281.297C112.992 232.844 144.139 185.39 192.343 175.334C211.789 171.279 231.499 173.695 249.341 182.324C253.051 184.117 257.237 184.353 261.123 182.983C265.01 181.612 268.132 178.805 269.918 175.073C271.702 171.343 271.937 167.135 270.574 163.228C269.211 159.322 266.418 156.182 262.706 154.386C246.272 146.438 228.665 142.409 210.807 142.409L210.809 142.413Z" fill="#FFEDCA"/>
<path d="M235.153 382.741C243.811 380.936 249.372 372.417 247.576 363.713C245.78 355.008 237.306 349.418 228.648 351.224C180.573 361.253 133.345 330.09 123.368 281.758C117.349 252.593 126.113 222.419 146.816 201.045C152.985 194.677 152.847 184.488 146.513 178.287C140.178 172.085 130.044 172.223 123.875 178.591C95.7423 207.637 83.8329 248.651 92.0178 288.3C98.5889 320.132 117.095 347.486 144.13 365.323C171.165 383.16 203.49 389.347 235.153 382.741Z" fill="#FFB304"/>
<path d="M210.306 385.915C186.842 385.915 163.873 379.063 143.802 365.82C116.635 347.895 98.0388 320.408 91.437 288.421C83.2142 248.578 95.1804 207.366 123.45 178.177C126.543 174.982 130.689 173.191 135.123 173.132C139.55 173.063 143.748 174.752 146.926 177.861C153.485 184.281 153.625 194.867 147.238 201.462C126.673 222.695 117.965 252.669 123.947 281.639C126.37 293.374 131.013 304.286 137.752 314.075C144.259 323.529 152.432 331.538 162.044 337.88C171.656 344.222 182.216 348.573 193.432 350.814C205.046 353.134 216.854 353.077 228.526 350.641C237.487 348.773 246.295 354.58 248.152 363.591C249.054 367.956 248.209 372.412 245.776 376.14C243.344 379.868 239.612 382.418 235.27 383.324C226.96 385.058 218.6 385.915 210.306 385.915ZM135.348 174.319C135.277 174.319 135.206 174.319 135.137 174.319C131.02 174.373 127.17 176.039 124.297 179.005C96.302 207.911 84.4518 248.723 92.5941 288.179C99.132 319.856 117.549 347.075 144.451 364.826C171.353 382.577 203.522 388.734 235.029 382.161C239.061 381.319 242.525 378.949 244.785 375.49C247.045 372.029 247.828 367.89 246.993 363.836C245.265 355.467 237.088 350.072 228.765 351.809C216.936 354.276 204.97 354.335 193.2 351.982C181.835 349.713 171.133 345.303 161.393 338.875C151.654 332.449 143.372 324.333 136.777 314.753C129.948 304.833 125.241 293.771 122.785 281.882C116.725 252.524 125.549 222.151 146.389 200.631C152.319 194.508 152.188 184.676 146.098 178.715C143.199 175.877 139.387 174.321 135.348 174.321V174.319Z" fill="#FFB304"/>
<path d="M285.606 311.67C273.134 331.334 253.101 346.123 228.646 351.224C219.987 353.029 214.427 361.548 216.223 370.252C218.019 378.956 226.492 384.547 235.151 382.741C266.813 376.135 294.023 357.53 311.765 330.351" fill="#FFEDCA"/>
<path d="M231.866 383.676C228.664 383.676 225.529 382.741 222.791 380.933C219.083 378.488 216.546 374.736 215.645 370.371C213.785 361.36 219.563 352.508 228.527 350.638C240.401 348.162 251.42 343.378 261.28 336.417C270.802 329.697 278.819 321.262 285.109 311.347C285.284 311.068 285.651 310.987 285.925 311.166C286.2 311.342 286.282 311.71 286.105 311.986C279.733 322.032 271.609 330.58 261.96 337.39C251.967 344.444 240.801 349.292 228.768 351.802C220.444 353.538 215.077 361.76 216.804 370.126C217.642 374.18 219.999 377.662 223.442 379.934C226.885 382.206 231.002 382.993 235.034 382.151C266.543 375.578 293.618 357.064 311.275 330.018C311.455 329.745 311.822 329.669 312.094 329.847C312.366 330.028 312.444 330.397 312.264 330.67C294.434 357.982 267.092 376.677 235.275 383.315C234.142 383.55 233.001 383.669 231.868 383.669L231.866 383.676Z" fill="#FFEDCA"/>
<path d="M211.835 227.41L211.499 226.228C210.981 224.206 211.03 222.636 211.655 221.665C212.022 221.116 212.59 220.731 213.236 220.595C213.643 220.559 214.021 220.362 214.279 220.045C214.535 219.729 214.646 219.32 214.591 218.918L214.026 214.993C213.896 214.215 213.198 213.665 212.414 213.725C210.003 213.882 205.24 215.492 204.506 220.497C204.291 222.546 203.588 224.511 202.457 226.228H202.41L204.253 227.051L211.832 227.408L211.835 227.41Z" fill="#DC9A00"/>
<path d="M204.152 225.457C201.086 225.517 197.132 226.192 194.292 228.814C191.45 231.433 190.21 235.763 191.012 241.317C191.618 245.38 192.174 248.354 192.624 250.738C194.051 258.374 194.108 258.669 190.097 266.165C184.512 276.658 181.838 286.561 182.97 292.603C184.728 302.014 193.395 307.167 207.434 307.167H208.587V225.457H204.155H204.152Z" fill="#FFB304"/>
<path d="M227.056 266.167C223.042 258.669 223.151 258.374 224.528 250.74C224.976 248.354 225.506 245.383 226.14 241.32C226.959 235.765 225.865 231.554 222.879 228.816C220.087 226.245 216.242 225.548 213.196 225.46H208.589V307.169H209.742C223.781 307.169 232.448 302.017 234.207 292.606C235.34 286.559 232.666 276.658 227.06 266.167H227.058H227.056Z" fill="#F18140"/>
<path d="M208.513 275.235H218.505C224.246 275.235 228.908 279.922 228.908 285.695V287.893C228.908 294.545 223.536 299.945 216.922 299.945H208.513V275.235Z" fill="#FFEDCA"/>
<path d="M212.697 283.645V283.238C212.697 281.14 214.573 279.439 216.88 279.439V279.846C216.88 281.944 215.004 283.645 212.697 283.645Z" fill="#F18140"/>
<path d="M212.997 287.641L213.269 287.367C214.677 285.952 216.963 285.952 218.368 287.367L218.096 287.641C216.688 289.056 214.403 289.054 212.997 287.641Z" fill="#F18140"/>
<path d="M212.697 291.531C215.006 291.531 216.88 293.234 216.88 295.33V295.736C214.571 295.736 212.697 294.033 212.697 291.937V291.531Z" fill="#F18140"/>
<path d="M59.3437 425.487C78.5531 425.487 94.1254 409.832 94.1254 390.52C94.1254 371.208 78.5531 355.553 59.3437 355.553C40.1343 355.553 24.562 371.208 24.562 390.52C24.562 409.832 40.1343 425.487 59.3437 425.487Z" fill="#FFEDCA"/>
<path d="M74.5681 376.57L68.8986 376.677L68.7471 368.596C68.7306 367.769 68.0514 367.11 67.228 367.124C66.4045 367.138 65.7491 367.823 65.7633 368.651L65.9147 376.732L52.1904 376.991L52.0389 368.91C52.0224 368.083 51.3433 367.424 50.5198 367.438C49.6963 367.455 49.0409 368.137 49.0551 368.965L49.2065 377.046L43.537 377.153C42.7135 377.17 42.0581 377.853 42.0722 378.68L42.3325 392.599C42.3964 395.837 43.7357 398.918 46.0547 401.163C48.3736 403.409 51.4852 404.641 54.7057 404.584L58.0776 404.52L58.2669 414.718C58.2835 415.546 58.9626 416.205 59.7861 416.191C60.6095 416.176 61.265 415.491 61.2508 414.663L61.0615 404.465L64.4334 404.401C67.6539 404.337 70.7159 402.988 72.9496 400.656C75.1834 398.323 76.4067 395.195 76.3475 391.959L76.0873 378.041C76.0802 377.643 75.9145 377.265 75.6306 376.989C75.3466 376.713 74.9633 376.563 74.5681 376.57ZM73.3637 392.016C73.4087 394.46 72.4858 396.819 70.801 398.58C69.1163 400.34 66.8044 401.356 64.3766 401.406L54.6489 401.589C52.2188 401.632 49.8738 400.704 48.1228 399.008C46.3741 397.312 45.3637 394.99 45.3164 392.547L45.0845 380.129L73.1318 379.601L73.3637 392.019V392.016Z" fill="#FFB304"/>
<path d="M54.9146 394.962L63.8662 394.793C64.6897 394.776 65.3451 394.093 65.3309 393.265C65.3167 392.438 64.6352 391.779 63.8118 391.793L54.8602 391.962C54.0367 391.978 53.3813 392.661 53.3955 393.489C53.4097 394.317 54.0912 394.976 54.9146 394.962Z" fill="#FFB304"/>
<path d="M85.839 143.596C85.839 143.596 85.8272 143.596 85.8201 143.596C85.0321 143.569 84.2299 143.531 83.4372 143.479C83.1107 143.458 82.8646 143.175 82.8859 142.846C82.9072 142.518 83.1864 142.271 83.5153 142.292C84.2938 142.342 85.0818 142.38 85.8579 142.406C86.1845 142.416 86.44 142.692 86.4306 143.02C86.4211 143.341 86.1585 143.596 85.839 143.596ZM90.5692 143.591C90.2521 143.591 89.9894 143.339 89.9776 143.015C89.9658 142.687 90.2213 142.411 90.5479 142.401C91.3264 142.375 92.1143 142.335 92.8905 142.282C93.2146 142.256 93.4986 142.508 93.5199 142.837C93.5412 143.165 93.2951 143.448 92.9686 143.47C92.1782 143.522 91.3784 143.562 90.5857 143.591C90.5786 143.591 90.5715 143.591 90.5644 143.591H90.5692ZM78.7686 143.018C78.7426 143.018 78.7166 143.018 78.6905 143.013C77.9049 142.908 77.1122 142.789 76.3314 142.661C76.0096 142.606 75.7919 142.301 75.8439 141.976C75.8983 141.652 76.2012 141.433 76.5254 141.486C77.2944 141.614 78.0729 141.731 78.8467 141.833C79.1709 141.876 79.398 142.175 79.3554 142.501C79.3152 142.801 79.062 143.018 78.7686 143.018ZM97.6372 142.996C97.3461 142.996 97.0906 142.78 97.0527 142.48C97.0101 142.154 97.2373 141.854 97.5615 141.811C98.3305 141.707 99.1114 141.588 99.8804 141.459C100.202 141.402 100.507 141.624 100.562 141.947C100.616 142.271 100.399 142.577 100.077 142.632C99.2936 142.765 98.5009 142.884 97.7176 142.991C97.6916 142.996 97.6632 142.996 97.6372 142.996ZM71.7929 141.731C71.7479 141.731 71.703 141.726 71.6556 141.714C70.8842 141.531 70.1081 141.333 69.3438 141.124C69.0291 141.038 68.8422 140.71 68.9273 140.394C69.0125 140.077 69.3367 139.889 69.6538 139.975C70.4039 140.18 71.1706 140.375 71.9278 140.555C72.2448 140.632 72.4436 140.95 72.3679 141.271C72.304 141.545 72.0603 141.731 71.7929 141.731ZM104.611 141.695C104.343 141.695 104.099 141.512 104.036 141.238C103.96 140.919 104.156 140.598 104.473 140.522C105.233 140.339 105.997 140.144 106.745 139.937C107.06 139.851 107.386 140.037 107.471 140.353C107.559 140.67 107.372 140.998 107.057 141.084C106.295 141.293 105.519 141.493 104.745 141.678C104.7 141.69 104.653 141.695 104.608 141.695H104.611ZM64.978 139.744C64.9142 139.744 64.8479 139.735 64.784 139.711C64.0363 139.452 63.2791 139.173 62.5361 138.888C62.2308 138.771 62.0794 138.426 62.1953 138.119C62.3113 137.813 62.6544 137.658 62.9596 137.777C63.6908 138.06 64.4338 138.331 65.1697 138.588C65.4797 138.695 65.643 139.035 65.5365 139.345C65.4513 139.592 65.2218 139.744 64.978 139.744ZM111.418 139.692C111.175 139.692 110.945 139.537 110.86 139.292C110.753 138.983 110.914 138.643 111.224 138.536C111.96 138.279 112.701 138.005 113.427 137.722C113.733 137.603 114.073 137.755 114.192 138.062C114.31 138.369 114.158 138.714 113.853 138.831C113.117 139.116 112.362 139.395 111.615 139.656C111.551 139.678 111.485 139.689 111.421 139.689L111.418 139.692ZM58.3856 137.07C58.3028 137.07 58.2176 137.051 58.1372 137.016C57.4178 136.68 56.6961 136.328 55.9862 135.969C55.6952 135.821 55.5769 135.465 55.7236 135.17C55.8703 134.877 56.2276 134.758 56.5187 134.908C57.2167 135.262 57.929 135.607 58.6341 135.938C58.9299 136.076 59.06 136.43 58.9228 136.728C58.8234 136.944 58.6081 137.073 58.3856 137.073V137.07ZM117.987 137.013C117.765 137.013 117.552 136.885 117.45 136.668C117.313 136.371 117.44 136.017 117.736 135.879C118.437 135.55 119.147 135.205 119.84 134.851C120.131 134.703 120.488 134.82 120.635 135.113C120.782 135.405 120.666 135.764 120.375 135.912C119.667 136.271 118.948 136.623 118.236 136.959C118.155 136.997 118.07 137.013 117.987 137.013ZM52.1008 133.747C51.9991 133.747 51.895 133.721 51.8003 133.664C51.1188 133.259 50.435 132.836 49.7653 132.405C49.4909 132.229 49.408 131.861 49.5855 131.585C49.7606 131.309 50.1274 131.225 50.4019 131.404C51.0597 131.825 51.7341 132.241 52.4037 132.641C52.6853 132.807 52.7776 133.174 52.612 133.454C52.5007 133.642 52.3043 133.747 52.1032 133.747H52.1008ZM124.253 133.688C124.052 133.688 123.855 133.583 123.744 133.397C123.576 133.114 123.668 132.75 123.95 132.581C124.62 132.182 125.292 131.765 125.942 131.344C126.217 131.166 126.584 131.247 126.759 131.525C126.934 131.801 126.856 132.17 126.579 132.346C125.916 132.772 125.233 133.195 124.551 133.604C124.456 133.661 124.352 133.688 124.251 133.688H124.253ZM46.1805 129.81C46.0598 129.81 45.9367 129.772 45.8303 129.693C45.1914 129.22 44.5525 128.732 43.9325 128.238C43.677 128.033 43.632 127.66 43.8355 127.403C44.039 127.146 44.4105 127.101 44.666 127.305C45.2765 127.79 45.9036 128.271 46.533 128.735C46.7957 128.93 46.8525 129.301 46.6584 129.567C46.5425 129.727 46.3627 129.81 46.1805 129.81ZM130.157 129.748C129.975 129.748 129.797 129.665 129.681 129.508C129.487 129.244 129.544 128.87 129.807 128.675C130.434 128.211 131.058 127.729 131.669 127.243C131.924 127.039 132.296 127.084 132.499 127.341C132.703 127.598 132.658 127.971 132.402 128.176C131.782 128.668 131.146 129.158 130.509 129.632C130.403 129.71 130.28 129.748 130.159 129.748H130.157ZM40.6813 125.3C40.5393 125.3 40.3973 125.25 40.2861 125.147C39.6993 124.615 39.1124 124.065 38.5422 123.511C38.3079 123.282 38.3008 122.907 38.528 122.669C38.7551 122.433 39.129 122.426 39.3656 122.654C39.9264 123.199 40.5038 123.739 41.0812 124.265C41.3225 124.484 41.3438 124.862 41.1238 125.105C41.0078 125.235 40.8469 125.302 40.6836 125.302L40.6813 125.3ZM135.644 125.233C135.483 125.233 135.322 125.166 135.206 125.038C134.986 124.795 135.005 124.417 135.249 124.198C135.824 123.675 136.399 123.135 136.962 122.588C137.196 122.359 137.57 122.367 137.8 122.602C138.027 122.838 138.02 123.216 137.786 123.444C137.213 124.001 136.628 124.55 136.044 125.083C135.93 125.186 135.788 125.238 135.646 125.238L135.644 125.233ZM35.6601 120.264C35.4992 120.264 35.3382 120.197 35.2223 120.069C34.6899 119.479 34.1598 118.872 33.6487 118.268C33.4381 118.018 33.4689 117.642 33.7174 117.43C33.9658 117.219 34.3397 117.25 34.5503 117.499C35.0519 118.094 35.5725 118.691 36.0978 119.272C36.3179 119.514 36.299 119.89 36.0576 120.111C35.944 120.214 35.802 120.266 35.6601 120.266V120.264ZM140.661 120.19C140.519 120.19 140.377 120.14 140.263 120.035C140.022 119.814 140.003 119.438 140.22 119.196C140.743 118.613 141.264 118.016 141.766 117.421C141.976 117.171 142.35 117.138 142.599 117.352C142.847 117.564 142.88 117.939 142.667 118.189C142.156 118.796 141.628 119.402 141.096 119.995C140.98 120.126 140.819 120.19 140.658 120.19H140.661ZM31.1618 114.752C30.9796 114.752 30.8021 114.669 30.6862 114.512C30.2153 113.872 29.7491 113.215 29.2995 112.563C29.115 112.292 29.1812 111.923 29.451 111.735C29.7207 111.55 30.0875 111.616 30.2744 111.888C30.7146 112.53 31.1736 113.175 31.6374 113.805C31.8314 114.069 31.777 114.44 31.5144 114.638C31.4079 114.716 31.2848 114.754 31.1618 114.754V114.752ZM145.152 114.669C145.029 114.669 144.906 114.63 144.802 114.552C144.539 114.357 144.482 113.986 144.676 113.719C145.14 113.089 145.599 112.442 146.039 111.797C146.224 111.526 146.593 111.457 146.863 111.645C147.132 111.831 147.201 112.202 147.014 112.473C146.567 113.127 146.101 113.786 145.63 114.428C145.514 114.585 145.334 114.671 145.154 114.671L145.152 114.669ZM27.2338 108.821C27.0327 108.821 26.8363 108.717 26.7251 108.531C26.3204 107.848 25.9229 107.151 25.5419 106.454C25.3834 106.166 25.4875 105.805 25.7738 105.645C26.0601 105.486 26.4198 105.591 26.5783 105.879C26.9546 106.564 27.345 107.251 27.7425 107.92C27.9105 108.203 27.8183 108.567 27.5367 108.736C27.442 108.793 27.3379 108.819 27.2338 108.819V108.821ZM149.077 108.721C148.976 108.721 148.872 108.695 148.777 108.638C148.495 108.472 148.403 108.105 148.571 107.822C148.969 107.149 149.361 106.459 149.735 105.772C149.894 105.484 150.251 105.379 150.537 105.536C150.824 105.693 150.928 106.055 150.772 106.342C150.391 107.042 149.991 107.744 149.586 108.429C149.475 108.617 149.279 108.719 149.077 108.719V108.721ZM23.9187 102.527C23.6962 102.527 23.4833 102.401 23.3815 102.184C23.0479 101.463 22.7213 100.728 22.4114 100C22.2836 99.6983 22.4232 99.3486 22.7237 99.2201C23.0242 99.0917 23.3721 99.232 23.4998 99.5341C23.8027 100.25 24.1245 100.973 24.4534 101.682C24.5907 101.98 24.4629 102.334 24.1671 102.472C24.0867 102.51 24.0015 102.529 23.9163 102.529L23.9187 102.527ZM152.393 102.405C152.31 102.405 152.224 102.386 152.144 102.351C151.848 102.213 151.718 101.858 151.858 101.561C152.187 100.85 152.508 100.122 152.814 99.4009C152.941 99.0988 153.289 98.9585 153.59 99.0845C153.89 99.213 154.03 99.5627 153.902 99.8648C153.592 100.6 153.266 101.337 152.932 102.061C152.833 102.277 152.617 102.405 152.395 102.405H152.393ZM21.2495 95.9325C21.0058 95.9325 20.7763 95.7779 20.6911 95.5329C20.4308 94.7812 20.1776 94.0152 19.941 93.2563C19.844 92.9423 20.0167 92.6093 20.329 92.5117C20.6414 92.4142 20.9727 92.5878 21.0697 92.9019C21.3016 93.6488 21.55 94.4029 21.8056 95.1404C21.9144 95.4496 21.7512 95.7898 21.4412 95.8992C21.3773 95.9206 21.311 95.9325 21.2472 95.9325H21.2495ZM155.059 95.7827C154.995 95.7827 154.929 95.7731 154.865 95.7494C154.558 95.6423 154.392 95.3021 154.501 94.9929C154.756 94.2507 155.005 93.4942 155.234 92.7449C155.331 92.4308 155.663 92.2548 155.975 92.3523C156.287 92.4499 156.462 92.7829 156.365 93.0969C156.131 93.8582 155.88 94.6289 155.62 95.383C155.535 95.628 155.305 95.7827 155.062 95.7827H155.059ZM19.25 89.0909C18.9826 89.0909 18.7413 88.9077 18.675 88.6342C18.4905 87.861 18.3177 87.0712 18.1592 86.2933C18.0929 85.9722 18.3012 85.6582 18.6206 85.5916C18.9401 85.525 19.2524 85.7343 19.3187 86.0555C19.4748 86.8215 19.6452 87.597 19.8274 88.3582C19.9031 88.677 19.7067 88.9981 19.3896 89.0742C19.3423 89.0861 19.2974 89.0909 19.2524 89.0909H19.25ZM157.045 88.9291C157 88.9291 156.955 88.9244 156.907 88.9125C156.59 88.8364 156.394 88.5152 156.467 88.1964C156.647 87.4352 156.815 86.6597 156.971 85.8937C157.035 85.5725 157.347 85.3608 157.669 85.4274C157.989 85.4917 158.197 85.8057 158.133 86.1292C157.977 86.9095 157.804 87.6969 157.622 88.4724C157.558 88.746 157.314 88.9291 157.047 88.9291H157.045ZM17.9439 82.0827C17.6528 82.0827 17.3996 81.8663 17.3594 81.5689C17.2529 80.7815 17.1583 79.9798 17.0778 79.1877C17.0447 78.8617 17.2813 78.5692 17.6055 78.5359C17.9297 78.5025 18.2207 78.7404 18.2538 79.0663C18.3319 79.8442 18.4266 80.6316 18.5307 81.4072C18.5756 81.7331 18.3485 82.0328 18.0243 82.0756C17.9983 82.0804 17.9699 82.0804 17.9439 82.0804V82.0827ZM158.332 81.9162C158.306 81.9162 158.28 81.9162 158.254 81.9115C157.93 81.8686 157.702 81.5689 157.745 81.243C157.847 80.4699 157.939 79.6801 158.015 78.8998C158.048 78.5739 158.337 78.3313 158.661 78.367C158.985 78.4003 159.224 78.6905 159.191 79.0164C159.113 79.8109 159.02 80.6126 158.916 81.3976C158.876 81.6974 158.623 81.9138 158.329 81.9138L158.332 81.9162ZM17.3428 74.9771C17.0257 74.9771 16.7631 74.7249 16.7513 74.4037C16.7229 73.6092 16.7087 72.8028 16.7063 72.0058C16.7063 71.6776 16.969 71.4111 17.2955 71.4088C17.622 71.4088 17.8871 71.6752 17.8871 72.0011C17.8871 72.7837 17.9036 73.5783 17.932 74.3586C17.9439 74.6868 17.6883 74.9628 17.3618 74.9747C17.3547 74.9747 17.3476 74.9747 17.3405 74.9747L17.3428 74.9771ZM158.914 74.8105C158.914 74.8105 158.9 74.8105 158.895 74.8105C158.568 74.7986 158.313 74.5251 158.322 74.1968C158.348 73.4165 158.36 72.622 158.36 71.8393C158.36 71.511 158.625 71.2446 158.952 71.2446C159.278 71.2446 159.543 71.511 159.543 71.8393C159.543 72.6362 159.529 73.4427 159.503 74.2372C159.494 74.5584 159.231 74.8129 158.912 74.8129L158.914 74.8105ZM158.902 69.7269C158.585 69.7269 158.322 69.4747 158.311 69.1536C158.282 68.3709 158.24 67.5788 158.185 66.7985C158.161 66.4702 158.408 66.1871 158.734 66.1633C159.061 66.1419 159.342 66.3869 159.366 66.7152C159.42 67.5074 159.465 68.3138 159.494 69.1108C159.505 69.439 159.252 69.715 158.926 69.7269C158.919 69.7269 158.912 69.7269 158.904 69.7269H158.902ZM17.4446 67.8452C17.4327 67.8452 17.4185 67.8452 17.4067 67.8452C17.0802 67.8238 16.8341 67.5407 16.853 67.2148C16.9027 66.4203 16.9666 65.6162 17.0447 64.824C17.0754 64.4981 17.3665 64.2579 17.6907 64.2888C18.0148 64.3197 18.2538 64.6123 18.2231 64.9382C18.1474 65.7185 18.0858 66.5083 18.0361 67.2885C18.0172 67.6026 17.7569 67.8452 17.4469 67.8452H17.4446ZM158.287 62.6212C157.996 62.6212 157.743 62.4047 157.702 62.1074C157.596 61.3318 157.475 60.5492 157.343 59.7761C157.288 59.4525 157.504 59.1457 157.825 59.0886C158.147 59.0315 158.452 59.2503 158.509 59.5739C158.644 60.3589 158.767 61.1558 158.874 61.9432C158.919 62.2691 158.691 62.5689 158.367 62.6141C158.339 62.6188 158.313 62.6188 158.287 62.6188V62.6212ZM18.2467 60.7609C18.2136 60.7609 18.1828 60.7585 18.1497 60.7538C17.8279 60.7014 17.6102 60.3946 17.6623 60.071C17.79 59.286 17.9344 58.4915 18.0906 57.7112C18.1545 57.3901 18.4644 57.1807 18.7862 57.2449C19.1057 57.3092 19.3139 57.6232 19.25 57.9443C19.0986 58.7103 18.9566 59.493 18.8288 60.2637C18.7815 60.554 18.5307 60.7609 18.2467 60.7609ZM156.966 55.6154C156.699 55.6154 156.458 55.4322 156.391 55.1611C156.209 54.3998 156.011 53.6314 155.802 52.8797C155.715 52.5633 155.899 52.235 156.214 52.147C156.529 52.0614 156.855 52.2446 156.943 52.5609C157.156 53.3269 157.357 54.1072 157.544 54.8827C157.622 55.2015 157.426 55.5226 157.108 55.6011C157.061 55.613 157.014 55.6178 156.969 55.6178L156.966 55.6154ZM19.7517 53.7908C19.6996 53.7908 19.6476 53.7837 19.5979 53.7694C19.2832 53.6838 19.0962 53.3579 19.1814 53.0391C19.3873 52.2707 19.6097 51.4952 19.844 50.734C19.941 50.42 20.2699 50.2415 20.5822 50.3391C20.8946 50.4342 21.0697 50.7673 20.975 51.0813C20.7455 51.8306 20.5278 52.5919 20.3243 53.346C20.2533 53.61 20.0143 53.7861 19.754 53.7861L19.7517 53.7908ZM154.953 48.7762C154.709 48.7762 154.48 48.6239 154.394 48.3789C154.134 47.6391 153.86 46.8945 153.578 46.1689C153.46 45.862 153.609 45.5171 153.914 45.3982C154.219 45.2792 154.562 45.4291 154.681 45.736C154.967 46.4758 155.246 47.2323 155.511 47.984C155.62 48.2933 155.457 48.6334 155.149 48.7429C155.085 48.7666 155.017 48.7762 154.953 48.7762ZM21.9499 47.0015C21.8789 47.0015 21.808 46.9896 21.7393 46.9611C21.4341 46.8445 21.2803 46.4996 21.3986 46.1927C21.6825 45.4481 21.9831 44.6964 22.2907 43.9613C22.4185 43.6592 22.7639 43.5165 23.0644 43.6449C23.365 43.7734 23.5069 44.1207 23.3792 44.4252C23.0763 45.1484 22.7805 45.8858 22.5013 46.6185C22.4114 46.8564 22.1866 47.0015 21.9476 47.0015H21.9499ZM152.265 42.1819C152.042 42.1819 151.829 42.0559 151.73 41.8394C151.399 41.1305 151.053 40.4216 150.701 39.7269C150.552 39.4343 150.668 39.0751 150.959 38.9276C151.25 38.7778 151.607 38.8943 151.754 39.1869C152.113 39.8911 152.466 40.6143 152.802 41.3351C152.941 41.6324 152.814 41.9869 152.518 42.1272C152.437 42.1653 152.35 42.1843 152.267 42.1843L152.265 42.1819ZM24.8178 40.4668C24.7279 40.4668 24.638 40.4454 24.5528 40.4025C24.2618 40.255 24.1435 39.8982 24.2902 39.6032C24.6475 38.8919 25.019 38.1759 25.3999 37.4765C25.5561 37.1887 25.9158 37.0816 26.2021 37.2386C26.4884 37.3956 26.5949 37.7572 26.4387 38.0451C26.0649 38.7326 25.6981 39.4367 25.3479 40.1385C25.2438 40.3454 25.0355 40.4668 24.8178 40.4668ZM148.933 35.8969C148.732 35.8969 148.535 35.7947 148.424 35.6067C148.024 34.9359 147.608 34.2627 147.187 33.6061C147.009 33.3302 147.09 32.9614 147.364 32.783C147.639 32.6046 148.005 32.6831 148.183 32.9614C148.611 33.6299 149.035 34.3126 149.439 34.9954C149.607 35.2761 149.515 35.6424 149.236 35.8113C149.141 35.8684 149.035 35.8969 148.933 35.8969ZM28.3246 34.2579C28.2158 34.2579 28.1069 34.227 28.0076 34.1651C27.7307 33.9891 27.6503 33.6204 27.8254 33.3444C28.2513 32.6712 28.6938 31.9956 29.141 31.3414C29.3256 31.0702 29.6947 31.0012 29.9645 31.1868C30.2342 31.3723 30.3028 31.7434 30.1183 32.0146C29.6805 32.6593 29.2451 33.323 28.8239 33.9843C28.7103 34.1628 28.5187 34.2603 28.3246 34.2603V34.2579ZM144.991 29.9736C144.811 29.9736 144.631 29.8903 144.515 29.7333C144.051 29.1077 143.571 28.4773 143.086 27.8659C142.882 27.609 142.925 27.2355 143.181 27.0309C143.436 26.8263 143.808 26.8691 144.011 27.1261C144.506 27.7493 144.993 28.3869 145.464 29.0244C145.658 29.2884 145.604 29.6595 145.343 29.857C145.237 29.9355 145.114 29.9736 144.991 29.9736ZM32.4301 28.4344C32.3023 28.4344 32.1722 28.394 32.0657 28.306C31.8078 28.1038 31.7652 27.7279 31.9663 27.471C32.4561 26.8453 32.9625 26.2197 33.4736 25.6107C33.6842 25.3585 34.0581 25.3276 34.3066 25.5393C34.5574 25.7511 34.5881 26.1269 34.3775 26.3767C33.8759 26.9762 33.3766 27.5923 32.8963 28.2061C32.7803 28.3559 32.6052 28.4321 32.4301 28.4321V28.4344ZM140.481 24.4712C140.32 24.4712 140.161 24.407 140.043 24.2762C139.52 23.7005 138.978 23.1224 138.434 22.561C138.207 22.3255 138.212 21.9496 138.446 21.7189C138.68 21.4881 139.054 21.4953 139.283 21.7284C139.837 22.2993 140.386 22.8869 140.919 23.4721C141.139 23.7147 141.122 24.0906 140.881 24.3118C140.767 24.4165 140.625 24.4665 140.483 24.4665L140.481 24.4712ZM37.0916 23.0534C36.9449 23.0534 36.7959 22.9987 36.6823 22.8869C36.448 22.6585 36.4386 22.2827 36.6657 22.0448C37.2123 21.4739 37.7802 20.9005 38.3481 20.3439C38.5824 20.1155 38.9563 20.1203 39.1858 20.3558C39.413 20.5913 39.4082 20.9672 39.174 21.1979C38.6155 21.745 38.0571 22.3065 37.5199 22.8703C37.404 22.9916 37.2478 23.0534 37.094 23.0534H37.0916ZM135.448 19.4471C135.306 19.4471 135.166 19.3971 135.053 19.2948C134.475 18.7715 133.879 18.2505 133.28 17.7485C133.029 17.5368 132.999 17.1633 133.207 16.9112C133.417 16.659 133.789 16.6281 134.04 16.8374C134.646 17.3489 135.254 17.8794 135.84 18.4099C136.084 18.6287 136.103 19.0046 135.885 19.2496C135.77 19.3804 135.606 19.4471 135.445 19.4471H135.448ZM42.2596 18.1696C42.0916 18.1696 41.9259 18.0982 41.8076 17.9603C41.597 17.7105 41.6254 17.3346 41.8739 17.1229C42.4796 16.6067 43.0972 16.0928 43.7148 15.6004C43.9704 15.3958 44.3419 15.4387 44.5454 15.6956C44.7489 15.9525 44.7063 16.326 44.4507 16.5306C43.845 17.0158 43.2345 17.5178 42.6405 18.0269C42.5293 18.122 42.3921 18.1696 42.2572 18.1696H42.2596ZM129.939 14.9486C129.818 14.9486 129.695 14.9105 129.589 14.8344C128.959 14.3705 128.313 13.9114 127.672 13.4713C127.402 13.2858 127.334 12.9171 127.516 12.6459C127.701 12.3747 128.067 12.3057 128.337 12.4889C128.99 12.9361 129.646 13.4023 130.287 13.8757C130.55 14.0708 130.609 14.4419 130.415 14.706C130.299 14.8653 130.119 14.9486 129.937 14.9486H129.939ZM47.8842 13.8258C47.6972 13.8258 47.5127 13.7354 47.3967 13.5689C47.2098 13.2977 47.2784 12.9289 47.5458 12.741C48.1941 12.289 48.8614 11.8418 49.5264 11.4112C49.8008 11.2328 50.1676 11.3137 50.3451 11.5896C50.5226 11.8656 50.4421 12.2343 50.1676 12.4127C49.5122 12.8362 48.8567 13.2763 48.2202 13.7211C48.1184 13.7925 48.0001 13.8258 47.8842 13.8258ZM124.009 11.0235C123.907 11.0235 123.803 10.9973 123.709 10.9402C123.034 10.5406 122.346 10.1504 121.664 9.77694C121.378 9.61993 121.271 9.25835 121.428 8.9705C121.584 8.68266 121.943 8.57561 122.23 8.73261C122.923 9.11086 123.623 9.51051 124.31 9.91729C124.591 10.0838 124.686 10.4478 124.52 10.7309C124.409 10.9188 124.213 11.0235 124.009 11.0235ZM53.9063 10.0695C53.6981 10.0695 53.4969 9.95773 53.3881 9.76267C53.2296 9.47482 53.3337 9.11323 53.62 8.95385C54.3109 8.57085 55.0184 8.19261 55.7212 7.83102C56.0123 7.68115 56.3696 7.79772 56.5163 8.09032C56.6654 8.38292 56.5494 8.74213 56.2584 8.88962C55.5651 9.24407 54.8717 9.61518 54.1903 9.99342C54.1003 10.0434 54.001 10.0672 53.9039 10.0672L53.9063 10.0695ZM117.715 7.71446C117.632 7.71446 117.547 7.69781 117.469 7.65974C116.761 7.33146 116.037 7.01269 115.318 6.7082C115.017 6.57974 114.875 6.23242 115.001 5.9303C115.126 5.62819 115.474 5.48546 115.775 5.61154C116.508 5.92079 117.244 6.24669 117.963 6.57974C118.259 6.71771 118.389 7.06978 118.252 7.36952C118.153 7.58838 117.937 7.71684 117.715 7.71684V7.71446ZM60.2692 6.94132C60.0397 6.94132 59.822 6.80573 59.7249 6.57974C59.5972 6.27762 59.7344 5.92793 60.0349 5.79947C60.759 5.48783 61.4996 5.18334 62.2355 4.89549C62.5408 4.77655 62.8839 4.9288 63.0022 5.23329C63.1205 5.54017 62.9691 5.88511 62.6662 6.00405C61.9421 6.28714 61.2133 6.58687 60.5011 6.89375C60.4254 6.92705 60.3473 6.94132 60.2692 6.94132ZM111.118 5.05726C111.054 5.05726 110.99 5.04774 110.926 5.02395C110.19 4.76941 109.435 4.52439 108.688 4.29364C108.375 4.19849 108.2 3.86544 108.295 3.55143C108.389 3.23742 108.721 3.06138 109.033 3.15654C109.795 3.38967 110.562 3.63945 111.309 3.89875C111.619 4.0058 111.783 4.3436 111.676 4.65523C111.591 4.90263 111.362 5.05726 111.118 5.05726ZM66.9136 4.46968C66.6628 4.46968 66.4286 4.30791 66.3481 4.05337C66.2511 3.73936 66.4238 3.40632 66.7362 3.30879C67.491 3.0709 68.2624 2.84253 69.0244 2.63081C69.3391 2.54279 69.6656 2.72834 69.7532 3.04473C69.8407 3.36112 69.6561 3.68941 69.3414 3.77743C68.5913 3.98677 67.8341 4.21038 67.0911 4.44589C67.032 4.46492 66.9728 4.47443 66.9136 4.47443V4.46968ZM104.293 3.08517C104.249 3.08517 104.204 3.08042 104.159 3.06852C103.401 2.89011 102.63 2.72358 101.866 2.57134C101.546 2.50711 101.338 2.19548 101.4 1.87195C101.463 1.54842 101.776 1.34146 102.095 1.40331C102.871 1.55794 103.657 1.72922 104.426 1.91001C104.743 1.98376 104.942 2.3049 104.868 2.62367C104.805 2.89724 104.561 3.08279 104.293 3.08279V3.08517ZM73.7805 2.68314C73.5061 2.68314 73.26 2.49046 73.2008 2.20737C73.1346 1.88622 73.3404 1.57221 73.6599 1.5056C74.4384 1.34384 75.2263 1.19635 76.0048 1.06075C76.3266 1.00366 76.6319 1.22252 76.6887 1.54604C76.7431 1.86957 76.5278 2.17644 76.206 2.23116C75.4417 2.362 74.6655 2.50949 73.9012 2.66649C73.861 2.67601 73.8208 2.67839 73.7805 2.67839V2.68314ZM97.313 1.81486C97.287 1.81486 97.261 1.81486 97.2373 1.8101C96.4659 1.71019 95.6827 1.61979 94.9065 1.54604C94.5823 1.51512 94.3434 1.2249 94.3741 0.896612C94.4049 0.570706 94.6936 0.33044 95.0201 0.361365C95.8081 0.437489 96.6055 0.527886 97.3911 0.630178C97.7153 0.672998 97.9448 0.970357 97.9022 1.29626C97.8643 1.596 97.6088 1.81486 97.3154 1.81486H97.313ZM80.7918 1.59838C80.4913 1.59838 80.2357 1.37001 80.2049 1.06551C80.1718 0.739606 80.4084 0.447005 80.7326 0.413701C81.5182 0.332819 82.318 0.263832 83.1083 0.209118C83.4349 0.187708 83.7165 0.432732 83.7401 0.761016C83.7638 1.0893 83.5177 1.37239 83.1912 1.39617C82.415 1.45089 81.6271 1.5175 80.8533 1.59838C80.832 1.59838 80.8131 1.60076 80.7918 1.60076V1.59838ZM90.2426 1.25344C90.2426 1.25344 90.2308 1.25344 90.2261 1.25344C89.5304 1.23203 88.8229 1.22252 88.1272 1.22252H87.8811C87.5546 1.22252 87.2895 0.958462 87.2895 0.630178C87.2895 0.301894 87.5522 0.0354599 87.8787 0.0330811H88.1319C88.8371 0.0330811 89.5564 0.0425965 90.2639 0.0640064C90.5905 0.0735219 90.8484 0.347092 90.8389 0.675376C90.8295 0.998903 90.5668 1.25344 90.2474 1.25344H90.2426Z" fill="#FFEDCA"/>
<path d="M88.1271 125.79C117.769 125.79 141.799 101.632 141.799 71.8322C141.799 42.0323 117.769 17.8746 88.1271 17.8746C58.4851 17.8746 34.4556 42.0323 34.4556 71.8322C34.4556 101.632 58.4851 125.79 88.1271 125.79Z" fill="#FFEDCA"/>
<path d="M112.633 58.5937L112.637 44.0041C112.637 39.2059 97.4342 37.9189 88.4495 37.9166C79.4648 37.9142 64.2592 39.1893 64.2592 43.9874L64.2544 58.5771C64.2544 59.8046 65.2506 60.7989 66.881 61.603C65.1039 62.4523 64.2544 63.449 64.2521 64.6551L64.2473 79.2447C64.2473 80.4722 65.2435 81.4666 66.8739 82.2706C65.0968 83.1199 64.2473 84.1166 64.245 85.3227L64.2402 99.9123C64.2402 104.711 79.4435 105.997 88.4282 106C97.4129 106.002 112.618 104.727 112.618 99.929L112.623 85.3394C112.623 84.1333 111.774 83.1365 109.997 82.2849C111.627 81.4808 112.623 80.4865 112.626 79.259L112.63 64.6694C112.63 63.4633 111.781 62.4665 110.004 61.6149C111.634 60.8108 112.63 59.8165 112.633 58.589V58.5937ZM88.4495 40.3478C88.8659 40.3478 89.2777 40.3502 89.6847 40.3549C89.829 40.3549 89.9686 40.3597 90.1106 40.362C90.3732 40.3668 90.6359 40.3692 90.8938 40.3763C91.0429 40.3811 91.1896 40.3858 91.3387 40.3882C91.58 40.3954 91.8237 40.4001 92.0604 40.4072C92.2378 40.4144 92.413 40.4215 92.5881 40.4287C92.7916 40.4358 92.9998 40.4429 93.2009 40.4524C93.3571 40.4596 93.5085 40.4691 93.6623 40.4762C93.8777 40.4881 94.0954 40.4976 94.306 40.5095C94.4716 40.5191 94.6325 40.5286 94.7934 40.5405C94.9874 40.5524 95.1838 40.5643 95.3731 40.5761C95.5482 40.588 95.7186 40.6023 95.8914 40.6142C96.0641 40.6261 96.2392 40.638 96.4096 40.6523C96.5823 40.6665 96.7503 40.6808 96.923 40.6975C97.0863 40.7117 97.252 40.7236 97.4105 40.7403C97.5809 40.7569 97.7441 40.7736 97.9098 40.7902C98.0659 40.8045 98.2245 40.8212 98.3759 40.8354C98.5416 40.8521 98.7001 40.8711 98.8634 40.8902C99.0101 40.9068 99.1615 40.9235 99.3059 40.9401C99.4692 40.9591 99.6277 40.9806 99.7886 40.9996C99.9258 41.0162 100.068 41.0329 100.203 41.0519C100.364 41.0733 100.517 41.0947 100.674 41.1161C100.804 41.1328 100.934 41.1518 101.062 41.1685C101.22 41.1923 101.372 41.2161 101.525 41.2375C101.646 41.2565 101.767 41.2732 101.885 41.2922C102.037 41.316 102.181 41.3398 102.328 41.3659C102.444 41.385 102.559 41.404 102.673 41.423C102.82 41.4492 102.959 41.4754 103.104 41.4991C103.21 41.5182 103.319 41.5372 103.423 41.5562C103.568 41.5824 103.705 41.611 103.842 41.6371C103.939 41.6562 104.041 41.6752 104.135 41.6942C104.273 41.7228 104.403 41.7513 104.533 41.7775C104.625 41.7965 104.72 41.8179 104.81 41.8369C104.935 41.8655 105.054 41.8917 105.174 41.9202C105.266 41.9416 105.359 41.963 105.449 41.9844C105.562 42.0106 105.671 42.0392 105.782 42.0677C105.87 42.0891 105.962 42.1129 106.047 42.1343C106.156 42.1629 106.258 42.1914 106.362 42.2199C106.445 42.2414 106.528 42.2651 106.608 42.2866C106.708 42.3151 106.8 42.3413 106.897 42.3698C106.975 42.3936 107.055 42.415 107.133 42.4388C107.226 42.4673 107.311 42.4935 107.401 42.5221C107.472 42.5459 107.548 42.5673 107.616 42.591C107.699 42.6196 107.779 42.6458 107.858 42.6743C107.926 42.6981 107.995 42.7219 108.061 42.7457C108.134 42.7718 108.203 42.798 108.272 42.8242C108.336 42.848 108.402 42.8741 108.463 42.8979C108.53 42.9241 108.591 42.9503 108.653 42.9764C108.712 43.0002 108.771 43.024 108.825 43.0478C108.885 43.074 108.937 43.0978 108.991 43.1239C109.043 43.1477 109.1 43.1739 109.15 43.1977C109.199 43.2215 109.244 43.2476 109.292 43.2714C109.339 43.2952 109.386 43.3214 109.431 43.3452C109.476 43.3689 109.514 43.3927 109.552 43.4165C109.592 43.4403 109.635 43.4641 109.67 43.4879C109.706 43.5117 109.736 43.5331 109.769 43.5569C109.803 43.5807 109.838 43.6044 109.869 43.6282C109.897 43.6496 109.921 43.6711 109.947 43.6925C109.973 43.7163 110.004 43.74 110.027 43.7615C110.049 43.7829 110.065 43.8019 110.084 43.8233C110.105 43.8471 110.127 43.8685 110.143 43.8923C110.158 43.9137 110.169 43.9327 110.179 43.9541C110.191 43.9708 110.2 43.9898 110.21 44.0089C109.609 45.3053 101.762 47.6509 88.4518 47.6462C74.9949 47.6414 67.1247 45.2387 66.6775 44.0303C67.1247 42.7433 74.9973 40.3454 88.4542 40.3502L88.4495 40.3478ZM88.4305 103.573C74.9736 103.569 67.1034 101.166 66.6609 99.9195L66.6657 88.2511C71.3154 90.6799 81.6465 91.415 88.4353 91.4174C95.2217 91.4174 105.558 90.6918 110.207 88.2654V99.8957C109.76 101.183 101.887 103.581 88.4329 103.576L88.4305 103.573ZM110.21 85.3061C109.748 86.593 101.878 88.9862 88.4353 88.9814C75.0138 88.9767 67.1507 86.5883 66.6657 85.3774V85.3584C66.7177 85.2632 67.2596 84.4497 70.5156 83.5505C75.7426 84.8874 83.1585 85.3322 88.4353 85.3346C93.712 85.3346 101.128 84.8969 106.357 83.56C109.677 84.4782 110.174 85.3061 110.21 85.3061ZM88.4376 82.9034C80.5556 82.901 74.5926 82.0756 70.9155 81.1407C70.8918 81.1312 70.8634 81.1288 70.8397 81.1216C68.2842 80.4651 66.8502 79.7609 66.6704 79.2471L66.6751 67.5787C71.3248 70.0075 81.6559 70.7426 88.4447 70.745C95.2312 70.745 105.567 70.0194 110.217 67.593V79.2233C109.769 80.5103 101.897 82.9082 88.4424 82.9034H88.4376ZM110.217 64.6361C109.755 65.923 101.885 68.3162 88.4424 68.3114C75.0209 68.3067 67.1578 65.9183 66.6728 64.7074V64.6884C66.7248 64.5932 67.2667 63.7797 70.5227 62.8804C75.7497 64.2198 83.1656 64.6646 88.4424 64.6646C93.7191 64.6646 101.135 64.2269 106.364 62.89C109.684 63.8082 110.181 64.6337 110.217 64.6337V64.6361ZM88.4447 62.2334C74.9878 62.2286 67.1176 59.826 66.6751 58.5794V46.9063C71.3201 49.3352 81.6583 50.0726 88.4471 50.075C95.2335 50.075 105.569 49.3494 110.219 46.923V58.5533C109.772 59.8403 101.899 62.2382 88.4447 62.2334Z" fill="#FFB304"/>
<path d="M463.433 179.89C467.389 176.964 466.223 170.736 461.478 169.456L430.393 161.083L387.533 149.538L399.016 192.627L407.345 223.878C408.616 228.647 414.811 229.823 417.724 225.843L431.522 206.99L452.671 228.253L465.83 215.024L444.68 193.761L463.433 179.89Z" fill="#F18140"/>
<path d="M378.028 441.033H517.843C519.991 441.033 521.733 439.282 521.733 437.122V303.541C521.733 301.382 519.991 299.631 517.843 299.631H378.028C375.879 299.631 374.138 301.382 374.138 303.541V437.122C374.138 439.282 375.879 441.033 378.028 441.033Z" fill="#FFEDCA"/>
<path d="M491.442 406.197H404.428C400.978 406.197 398.171 403.376 398.171 399.91C398.171 396.444 400.978 393.622 404.428 393.622H491.442C494.892 393.622 497.696 396.444 497.696 399.91C497.696 403.376 494.89 406.197 491.442 406.197ZM404.428 394.809C401.631 394.809 399.355 397.098 399.355 399.907C399.355 402.717 401.631 405.005 404.428 405.005H491.442C494.239 405.005 496.513 402.717 496.513 399.907C496.513 397.098 494.237 394.809 491.442 394.809H404.428Z" fill="#FFB304"/>
<path d="M414.307 394.217H407.095L403.569 404.539C403.391 405.062 403.777 405.605 404.326 405.605H410.417L414.307 394.217Z" fill="#FFB304"/>
<path d="M410.417 406.197H404.326C403.876 406.197 403.453 405.978 403.192 405.609C402.932 405.243 402.864 404.767 403.01 404.341L406.536 394.019C406.619 393.779 406.844 393.617 407.094 393.617H414.307C414.498 393.617 414.678 393.71 414.787 393.867C414.896 394.024 414.927 394.224 414.865 394.405L410.975 405.793C410.892 406.033 410.667 406.195 410.417 406.195V406.197ZM407.518 394.809L404.129 404.729C404.099 404.817 404.134 404.886 404.158 404.919C404.182 404.953 404.234 405.007 404.328 405.007H409.995L413.481 394.809H407.52H407.518Z" fill="#FFB304"/>
<path d="M430.033 394.217H422.821L418.93 405.605H426.143L430.033 394.217Z" fill="#FFB304"/>
<path d="M426.142 406.197H418.93C418.738 406.197 418.559 406.104 418.45 405.947C418.341 405.79 418.31 405.59 418.372 405.409L422.262 394.022C422.345 393.782 422.569 393.62 422.82 393.62H430.033C430.224 393.62 430.404 393.713 430.513 393.87C430.622 394.027 430.653 394.226 430.591 394.407L426.701 405.795C426.618 406.035 426.393 406.197 426.142 406.197ZM419.758 405.007H425.719L429.204 394.809H423.244L419.758 405.007Z" fill="#FFB304"/>
<path d="M445.759 394.217H438.547L434.654 405.605H441.867L445.759 394.217Z" fill="#FFB304"/>
<path d="M441.867 406.197H434.654C434.463 406.197 434.283 406.104 434.174 405.947C434.065 405.79 434.034 405.59 434.096 405.409L437.986 394.022C438.069 393.782 438.293 393.62 438.544 393.62H445.757C445.948 393.62 446.128 393.713 446.237 393.87C446.346 394.027 446.377 394.226 446.315 394.407L442.425 405.795C442.342 406.035 442.117 406.197 441.867 406.197ZM435.482 405.007H441.443L444.929 394.809H438.968L435.482 405.007Z" fill="#FFB304"/>
<path d="M461.483 394.217H454.27L450.38 405.605H457.592L461.483 394.217Z" fill="#FFB304"/>
<path d="M457.593 406.197H450.38C450.189 406.197 450.009 406.104 449.9 405.947C449.791 405.79 449.76 405.59 449.822 405.409L453.712 394.022C453.795 393.782 454.02 393.62 454.27 393.62H461.483C461.674 393.62 461.854 393.713 461.963 393.87C462.072 394.027 462.103 394.226 462.041 394.407L458.151 405.795C458.068 406.035 457.843 406.197 457.593 406.197ZM451.208 405.007H457.169L460.655 394.809H454.694L451.208 405.007Z" fill="#FFB304"/>
<path d="M477.209 394.217H469.997L466.104 405.605H473.317L477.209 394.217Z" fill="#FFB304"/>
<path d="M473.316 406.197H466.104C465.912 406.197 465.732 406.104 465.624 405.947C465.515 405.79 465.484 405.59 465.545 405.409L469.436 394.022C469.518 393.782 469.743 393.62 469.994 393.62H477.206C477.398 393.62 477.578 393.713 477.687 393.87C477.796 394.027 477.826 394.226 477.765 394.407L473.875 405.795C473.792 406.035 473.567 406.197 473.316 406.197ZM466.932 405.007H472.893L476.378 394.809H470.418L466.932 405.007Z" fill="#FFB304"/>
<path d="M492.933 394.217H485.72L481.83 405.605H489.043L492.933 394.217Z" fill="#FFB304"/>
<path d="M489.043 406.197H481.83C481.639 406.197 481.459 406.104 481.35 405.947C481.241 405.79 481.211 405.59 481.272 405.409L485.162 394.022C485.245 393.782 485.47 393.62 485.721 393.62H492.933C493.125 393.62 493.304 393.713 493.413 393.87C493.522 394.027 493.553 394.226 493.491 394.407L489.601 405.795C489.518 406.035 489.294 406.197 489.043 406.197ZM482.659 405.007H488.619L492.105 394.809H486.144L482.659 405.007Z" fill="#FFB304"/>
<path d="M477.592 348.918C477.524 339.305 469.725 331.505 460.146 331.505C454.363 331.505 448.97 334.412 445.745 339.182C444.063 338.499 442.259 338.14 440.454 338.14C434.392 338.14 429.127 341.953 427.144 347.591C426.308 347.432 425.457 347.353 424.593 347.353C417.092 347.353 410.989 353.488 410.989 361.029C410.989 368.57 417.092 374.705 424.591 374.705H471.267C478.768 374.705 484.871 368.57 484.871 361.029C484.871 355.903 482.046 351.264 477.588 348.921L477.592 348.918ZM471.272 371.544H424.595C418.829 371.544 414.136 366.827 414.136 361.029C414.136 355.232 418.829 350.515 424.595 350.515C425.665 350.515 426.758 350.684 427.754 351L429.761 349.853C430.927 344.82 435.326 341.304 440.456 341.304C442.238 341.304 444.02 341.753 445.608 342.603L447.716 341.984C450.246 337.471 455.009 334.669 460.146 334.669C468.033 334.669 474.448 341.118 474.448 349.047C474.448 349.194 474.436 349.342 474.426 349.494L474.407 349.827L475.363 351.357C479.23 353.005 481.729 356.802 481.729 361.032C481.729 366.829 477.036 371.546 471.27 371.546L471.272 371.544Z" fill="#FFB304"/>
</g>
<defs>
<clipPath id="clip0_38_523">
<rect width="563" height="441" fill="white" transform="translate(0 0.0330811)"/>
</clipPath>
</defs>
</svg>
