<svg width="169" height="42" viewBox="0 0 169 42" fill="none" xmlns="http://www.w3.org/2000/svg">
<path d="M12.8551 6.19688L12.7066 5.67825C12.4781 4.79028 12.4996 4.10084 12.7751 3.67455C12.9374 3.43294 13.1875 3.26366 13.473 3.20441C13.653 3.18902 13.8193 3.10207 13.9339 2.96356C14.0462 2.82429 14.0963 2.645 14.0716 2.46802L13.8216 0.74441C13.7646 0.402765 13.4561 0.161151 13.1106 0.188083C12.0464 0.256565 9.94343 0.963709 9.62025 3.16132C9.52484 4.06083 9.21474 4.9234 8.71536 5.67748C8.70843 5.67748 8.70151 5.67748 8.69458 5.67748L9.50868 6.03837L12.8543 6.19534L12.8551 6.19688Z" fill="#DC9A00"/>
<path d="M9.46358 5.33911C8.11009 5.36527 6.36493 5.66229 5.11146 6.81265C3.85722 7.96301 3.31013 9.8636 3.66332 12.302C3.93032 14.0857 4.17578 15.3915 4.37431 16.4387C5.00373 19.7913 5.02913 19.9206 3.25858 23.2124C0.793192 27.8192 -0.387175 32.1675 0.112981 34.8214C0.888607 38.9534 4.71518 41.2157 10.9117 41.2157H11.4203V5.33911H9.46358Z" fill="#FFB304"/>
<path d="M19.5732 23.2132C17.8018 19.9207 17.8495 19.7914 18.4574 16.4396C18.6552 15.3923 18.8883 14.0873 19.1684 12.3029C19.5301 9.86368 19.0476 8.01541 17.7295 6.8135C16.4968 5.68469 14.7994 5.37844 13.4551 5.33997H11.4214V41.2165H11.93C18.1265 41.2165 21.9531 38.9543 22.7288 34.8222C23.2289 32.1675 22.0485 27.82 19.5747 23.214L19.5732 23.2132Z" fill="#F18140"/>
<path d="M11.3884 27.1953H15.7998C18.3339 27.1953 20.3912 29.253 20.3912 31.7875V32.7529C20.3912 35.6735 18.0202 38.0441 15.101 38.0441H11.3884V27.1946V27.1953Z" fill="white"/>
<path d="M13.2351 30.8878V30.7092C13.2351 29.7881 14.063 29.0411 15.0818 29.0411V29.2197C15.0818 30.1408 14.2539 30.8878 13.2351 30.8878Z" fill="#F18140"/>
<path d="M13.3679 32.6426L13.4884 32.522C14.1099 31.9006 15.1185 31.9011 15.7395 32.522L15.6189 32.6426C14.9975 33.264 13.9888 33.2635 13.3679 32.6426Z" fill="#F18140"/>
<path d="M13.2346 34.3505C14.2543 34.3505 15.0813 35.0983 15.0813 36.0186V36.1972C14.0617 36.1972 13.2346 35.4494 13.2346 34.5291V34.3505Z" fill="#F18140"/>
<path d="M36.4468 30.4991C41.4389 30.4991 43.9465 28.0145 43.9465 25.0698C43.9465 19.1345 35.0435 20.7448 35.0435 18.8124C35.0435 18.2603 35.5496 17.8001 37.1369 17.8001C38.5403 17.8001 40.0356 18.1912 41.623 18.9964L43.2563 15.0625C41.577 14.1193 39.3455 13.6592 37.183 13.6592C32.1908 13.6592 29.6832 16.0978 29.6832 19.0884C29.6832 25.0928 38.5863 23.4594 38.5863 25.4839C38.5863 26.036 38.0341 26.3581 36.4928 26.3581C34.7214 26.3581 32.6969 25.783 31.1786 24.8858L29.4302 28.8427C31.0405 29.8319 33.7552 30.4991 36.4468 30.4991ZM150.967 29.3948C150.3 30.062 149.518 30.4301 148.736 30.4301C148.161 30.4301 147.724 30.269 147.241 29.7629C150.392 28.4976 152.44 25.645 152.44 22.0791C152.44 17.202 148.598 13.6592 143.353 13.6592C138.108 13.6592 134.266 17.202 134.266 22.0791C134.266 26.2201 137.049 29.4178 141.098 30.269C143.997 33.3057 145.768 34.2029 148.621 34.2029C150.553 34.2029 152.187 33.4898 153.314 32.1554L150.967 29.3948ZM143.353 18.0532C145.354 18.0532 146.965 19.5716 146.965 22.0791C146.965 24.5867 145.354 26.1051 143.353 26.1051C141.351 26.1051 139.741 24.5867 139.741 22.0791C139.741 19.5716 141.351 18.0532 143.353 18.0532ZM154.41 30.131H167.109V25.921H159.84V14.0273H154.41V30.131Z" fill="#F18140"/>
<path d="M61.6198 29.3948C60.9526 30.062 60.1704 30.4301 59.3883 30.4301C58.8131 30.4301 58.376 30.269 57.8929 29.7629C61.0446 28.4976 63.0921 25.645 63.0921 22.0791C63.0921 17.202 59.2502 13.6592 54.005 13.6592C48.7598 13.6592 44.9179 17.202 44.9179 22.0791C44.9179 26.2201 47.7016 29.4178 51.7505 30.269C54.6492 33.3057 56.4206 34.2029 59.2732 34.2029C61.2057 34.2029 62.8391 33.4898 63.9663 32.1554L61.6198 29.3948ZM54.005 18.0532C56.0065 18.0532 57.6169 19.5716 57.6169 22.0791C57.6169 24.5867 56.0065 26.1051 54.005 26.1051C52.0036 26.1051 50.3932 24.5867 50.3932 22.0791C50.3932 19.5716 52.0036 18.0532 54.005 18.0532ZM72.7694 30.4991C77.7156 30.4991 80.6142 27.7154 80.6142 22.8843V14.0273H75.277V22.7233C75.277 25.1848 74.3338 26.1051 72.8154 26.1051C71.2971 26.1051 70.3539 25.1848 70.3539 22.7233V14.0273H64.9246V22.8843C64.9246 27.7154 67.8233 30.4991 72.7694 30.4991ZM94.8207 30.131H100.434L93.3944 14.0273H88.0572L81.0175 30.131H86.5388L87.6201 27.3243H93.7395L94.8207 30.131ZM89.1154 23.4134L90.6798 19.3645L92.2441 23.4134H89.1154ZM107.305 30.4991C112.297 30.4991 114.805 28.0145 114.805 25.0698C114.805 19.1345 105.902 20.7448 105.902 18.8124C105.902 18.2603 106.408 17.8001 107.995 17.8001C109.398 17.8001 110.894 18.1912 112.481 18.9964L114.114 15.0625C112.435 14.1193 110.204 13.6592 108.041 13.6592C103.049 13.6592 100.541 16.0978 100.541 19.0884C100.541 25.0928 109.444 23.4594 109.444 25.4839C109.444 26.036 108.892 26.3581 107.351 26.3581C105.579 26.3581 103.555 25.783 102.037 24.8858L100.288 28.8427C101.899 29.8319 104.613 30.4991 107.305 30.4991ZM126.865 14.0273V19.7326H121.849V14.0273H116.42V30.131H121.849V24.1956H126.865V30.131H132.294V14.0273H126.865Z" fill="#FFB304"/>
</svg>
