<svg width="124" height="123" viewBox="0 0 124 123" fill="none" xmlns="http://www.w3.org/2000/svg">
<ellipse cx="62" cy="61.5601" rx="61.4406" ry="61.0621" fill="#FFB304"/>
<path d="M62 30.1765C44.7204 30.1765 30.721 44.2226 30.721 61.5601C30.721 78.8975 44.7204 92.9437 62 92.9437C79.2797 92.9452 93.279 78.8991 93.279 61.5601C93.279 44.2226 79.2797 30.1765 62 30.1765ZM62 90.3116C46.2507 90.3116 33.3455 77.3632 33.3455 61.5612C33.3455 45.7593 46.2507 32.8109 62 32.8109C77.7493 32.8109 90.6545 45.7593 90.6545 61.5612C90.6545 77.3632 77.7477 90.3116 62 90.3116ZM79.498 61.5612C79.498 62.2195 78.8419 62.8778 78.1858 62.8778H45.5944C44.9383 62.8778 44.2822 62.2195 44.2822 61.5612C44.2822 60.9029 44.9383 60.2446 45.5944 60.2446H78.187C79.0613 60.2446 79.498 60.9029 79.498 61.5612ZM62 55.8554C65.7184 55.8554 69.0004 52.7829 69.0004 48.8315C69.0004 45.1007 65.9382 41.8077 62 41.8077C58.2816 41.8077 54.9996 44.8802 54.9996 48.8315C54.9996 52.7828 58.0618 55.8554 62 55.8554ZM62 44.6616C64.4062 44.6616 66.1564 46.6365 66.1564 48.8319C66.1564 51.2462 64.1881 53.0023 62 53.0023C59.8119 53.0023 57.8435 51.0274 57.8435 48.8319C57.6238 46.6381 59.5937 44.6616 62 44.6616ZM62 67.2687C58.2816 67.2687 54.9996 70.3412 54.9996 74.2925C54.9996 78.0233 58.0618 81.3164 62 81.3164C65.7184 81.3164 69.0004 78.2439 69.0004 74.2925C68.7807 70.3413 65.7185 67.2687 62 67.2687ZM62 78.4613C59.5938 78.4613 57.8435 76.4864 57.8435 74.291C57.8435 72.0956 59.8119 70.1206 62 70.1206C64.1881 70.1206 66.1564 72.0955 66.1564 74.291C66.1549 76.4863 64.1866 78.4613 62 78.4613Z" fill="white"/>
<path d="M62 30.1765C44.7204 30.1765 30.721 44.2226 30.721 61.5601C30.721 78.8975 44.7204 92.9437 62 92.9437C79.2797 92.9452 93.279 78.8991 93.279 61.5601C93.279 44.2226 79.2797 30.1765 62 30.1765ZM62 90.3116C46.2507 90.3116 33.3455 77.3632 33.3455 61.5612C33.3455 45.7593 46.2507 32.8109 62 32.8109C77.7493 32.8109 90.6545 45.7593 90.6545 61.5612C90.6545 77.3632 77.7477 90.3116 62 90.3116ZM79.498 61.5612C79.498 62.2195 78.8419 62.8778 78.1858 62.8778H45.5944C44.9383 62.8778 44.2822 62.2195 44.2822 61.5612C44.2822 60.9029 44.9383 60.2446 45.5944 60.2446H78.187C79.0613 60.2446 79.498 60.9029 79.498 61.5612ZM62 55.8554C65.7184 55.8554 69.0004 52.7829 69.0004 48.8315C69.0004 45.1007 65.9382 41.8077 62 41.8077C58.2816 41.8077 54.9996 44.8802 54.9996 48.8315C54.9996 52.7828 58.0618 55.8554 62 55.8554ZM62 44.6616C64.4062 44.6616 66.1564 46.6365 66.1564 48.8319C66.1564 51.2462 64.1881 53.0023 62 53.0023C59.8119 53.0023 57.8435 51.0274 57.8435 48.8319C57.6238 46.6381 59.5937 44.6616 62 44.6616ZM62 67.2687C58.2816 67.2687 54.9996 70.3412 54.9996 74.2925C54.9996 78.0233 58.0618 81.3164 62 81.3164C65.7184 81.3164 69.0004 78.2439 69.0004 74.2925C68.7807 70.3413 65.7185 67.2687 62 67.2687ZM62 78.4613C59.5938 78.4613 57.8435 76.4864 57.8435 74.291C57.8435 72.0956 59.8119 70.1206 62 70.1206C64.1881 70.1206 66.1564 72.0955 66.1564 74.291C66.1549 76.4863 64.1866 78.4613 62 78.4613Z" stroke="white"/>
</svg>
