<svg width="124" height="123" viewBox="0 0 124 123" fill="none" xmlns="http://www.w3.org/2000/svg">
<ellipse cx="62" cy="61.1377" rx="61.4406" ry="61.0621" fill="#FFB304"/>
<path d="M93.8243 37.6704H30.1757C29.1688 37.6704 28.3525 38.486 28.3525 39.493V82.7824C28.3525 83.2656 28.5452 83.7296 28.8865 84.071C29.2285 84.413 29.692 84.605 30.1758 84.605H93.8243C94.3081 84.605 94.7715 84.413 95.1135 84.071C95.4549 83.7296 95.6475 83.2656 95.6475 82.7824V39.493C95.6475 39.0098 95.4549 38.5458 95.1135 38.2044C94.7715 37.8623 94.308 37.6704 93.8243 37.6704ZM92.0017 80.9599H31.9986V41.3158H92.0017V80.9599Z" fill="white"/>
<path d="M41.8947 69.7047C42.2367 70.0467 42.7001 70.2393 43.1839 70.2393C43.6677 70.2393 44.1318 70.0467 44.4738 69.7047L51.7648 62.4136C52.1068 62.0716 52.2994 61.6076 52.2994 61.1238C52.2994 60.6406 52.1068 60.1766 51.7648 59.8345L44.4738 52.5435C43.7618 51.8315 42.6066 51.8315 41.8946 52.5435C41.182 53.2555 41.182 54.4107 41.8946 55.1227L47.8728 61.1378L41.885 67.1256C41.5443 67.4682 41.3536 67.9329 41.3555 68.4167C41.3568 68.9005 41.5508 69.3639 41.8947 69.7047Z" fill="white"/>
<path d="M55.0558 70.2514H69.2914C70.2977 70.2514 71.1139 69.4352 71.1139 68.4289C71.1139 67.4219 70.2977 66.6063 69.2914 66.6063H55.0558C54.0489 66.6063 53.2333 67.4219 53.2333 68.4289C53.2333 69.4352 54.0489 70.2514 55.0558 70.2514Z" fill="white"/>
</svg>
