<svg width="124" height="123" viewBox="0 0 124 123" fill="none" xmlns="http://www.w3.org/2000/svg">
<ellipse cx="61.9999" cy="61.5601" rx="61.4406" ry="61.0621" fill="#FFB304"/>
<mask id="path-2-outside-1_101_1132" maskUnits="userSpaceOnUse" x="38.5303" y="25.8646" width="47" height="71" fill="black">
<rect fill="white" x="38.5303" y="25.8646" width="47" height="71"/>
<path d="M84.4644 47.9367L84.4688 33.0684C84.471 28.1786 70.3514 26.867 62.0105 26.8646C53.6675 26.8622 39.5479 28.1616 39.5457 33.0514L39.5413 47.9197C39.5413 49.1706 40.4663 50.184 41.9802 51.0034C40.3323 51.8713 39.5413 52.8895 39.5413 54.1162L39.5369 68.9845C39.5369 70.2354 40.4619 71.2488 41.9758 72.0682C40.3257 72.9361 39.5347 73.9543 39.5347 75.181L39.5303 90.0517C39.5303 94.9415 53.6477 96.2531 61.9908 96.2555C70.3338 96.2579 84.4534 94.9585 84.4534 90.0686L84.4578 75.2004C84.4578 73.9713 83.669 72.9555 82.0189 72.0876C83.5328 71.2682 84.4578 70.2548 84.46 69.0039L84.4644 54.1356C84.4644 52.9065 83.6756 51.8907 82.0255 51.0228C83.5394 50.2034 84.4644 49.19 84.4666 47.9391L84.4644 47.9367ZM62.0083 29.3422C62.3951 29.3422 62.7774 29.3447 63.1553 29.3495C63.2893 29.3495 63.419 29.3544 63.5508 29.3568C63.7947 29.3616 64.0386 29.364 64.2781 29.3713C64.4165 29.3762 64.5528 29.381 64.6912 29.3834C64.9153 29.3907 65.1416 29.3956 65.3614 29.4028C65.5262 29.4101 65.6888 29.4174 65.8514 29.4247C66.0403 29.4319 66.2337 29.4392 66.4205 29.4489C66.5655 29.4562 66.7061 29.4659 66.8489 29.4731C67.0489 29.4853 67.251 29.495 67.4466 29.5071C67.6004 29.5168 67.7498 29.5265 67.8992 29.5386C68.0794 29.5507 68.2618 29.5628 68.4375 29.575C68.6001 29.5871 68.7583 29.6016 68.9187 29.6138C69.0791 29.6259 69.2417 29.638 69.3999 29.6525C69.5604 29.6671 69.7164 29.6816 69.8768 29.6986C70.0284 29.7131 70.1822 29.7253 70.3294 29.7422C70.4876 29.7592 70.6392 29.7762 70.793 29.7932C70.938 29.8077 71.0853 29.8247 71.2259 29.8392C71.3797 29.8562 71.5269 29.8756 71.6785 29.895C71.8147 29.9119 71.9554 29.9289 72.0894 29.9459C72.241 29.9653 72.3882 29.9871 72.5376 30.0065C72.6651 30.0235 72.7969 30.0404 72.9222 30.0598C73.0716 30.0816 73.2144 30.1035 73.3594 30.1253C73.4803 30.1422 73.6011 30.1616 73.7198 30.1786C73.867 30.2029 74.0076 30.2271 74.1504 30.2489C74.2625 30.2683 74.3746 30.2853 74.4844 30.3047C74.6251 30.3289 74.7591 30.3532 74.8953 30.3798C75.003 30.3992 75.1107 30.4186 75.2161 30.438C75.3524 30.4647 75.482 30.4914 75.616 30.5156C75.7149 30.535 75.816 30.5544 75.9127 30.5738C76.0467 30.6004 76.1741 30.6295 76.3016 30.6562C76.3917 30.6756 76.4861 30.695 76.574 30.7144C76.7015 30.7435 76.8223 30.7726 76.9432 30.7992C77.0289 30.8186 77.1168 30.8404 77.2003 30.8598C77.3167 30.8889 77.4266 30.9156 77.5386 30.9447C77.6243 30.9665 77.71 30.9883 77.7935 31.0102C77.899 31.0368 78.0001 31.0659 78.1033 31.095C78.1846 31.1168 78.2703 31.1411 78.3494 31.1629C78.4505 31.192 78.545 31.2211 78.6417 31.2502C78.7186 31.272 78.7955 31.2962 78.8702 31.318C78.9625 31.3471 79.0482 31.3738 79.1382 31.4029C79.2108 31.4271 79.2855 31.449 79.358 31.4732C79.4437 31.5023 79.5228 31.529 79.6063 31.558C79.6722 31.5823 79.7425 31.6041 79.8062 31.6283C79.8831 31.6574 79.9578 31.6841 80.0303 31.7132C80.0941 31.7374 80.1578 31.7617 80.2193 31.7859C80.2874 31.8126 80.3511 31.8393 80.4149 31.8659C80.4742 31.8902 80.5357 31.9168 80.5928 31.9411C80.6544 31.9678 80.7115 31.9944 80.7686 32.0211C80.8235 32.0453 80.8785 32.0696 80.929 32.0938C80.984 32.1205 81.0323 32.1447 81.0828 32.1714C81.1312 32.1956 81.1839 32.2223 81.23 32.2465C81.2762 32.2708 81.3179 32.2975 81.3619 32.3217C81.4058 32.3459 81.4498 32.3726 81.4915 32.3969C81.5333 32.4211 81.5684 32.4453 81.6036 32.4696C81.6409 32.4938 81.6805 32.5181 81.7134 32.5423C81.7464 32.5666 81.775 32.5884 81.8057 32.6126C81.8365 32.6369 81.8695 32.6611 81.898 32.6853C81.9244 32.7072 81.9464 32.729 81.9705 32.7508C81.9947 32.775 82.0233 32.7993 82.0452 32.8211C82.065 32.8429 82.0804 32.8623 82.098 32.8841C82.1177 32.9084 82.1375 32.9302 82.1529 32.9544C82.1661 32.9763 82.1771 32.9957 82.1859 33.0175C82.1968 33.0344 82.2056 33.0538 82.2144 33.0732C81.6563 34.3945 74.3702 36.7848 62.0105 36.78C49.5147 36.7751 42.2065 34.3266 41.7913 33.0951C42.2065 31.7835 49.5169 29.3398 62.0127 29.3447L62.0083 29.3422ZM61.9908 93.7754C49.4949 93.7706 42.1868 91.322 41.7759 90.0517L41.7803 78.1605C46.0979 80.6357 55.6912 81.3848 61.9952 81.3872C68.2969 81.3872 77.8946 80.6478 82.2122 78.175V90.0274C81.7969 91.339 74.4866 93.7827 61.993 93.7778L61.9908 93.7754ZM82.2144 75.1592C81.786 76.4707 74.4778 78.9096 61.9952 78.9047C49.5322 78.8999 42.2307 76.4659 41.7803 75.2319V75.2125C41.8286 75.1155 42.3318 74.2864 45.3552 73.37C50.209 74.7325 57.0952 75.1858 61.9952 75.1883C66.8951 75.1883 73.7813 74.7422 78.6373 73.3797C81.72 74.3155 82.1815 75.1592 82.2144 75.1592ZM61.9973 72.7106C54.6782 72.7082 49.1411 71.867 45.7266 70.9142C45.7046 70.9045 45.6782 70.9021 45.6563 70.8948C43.2832 70.2257 41.9517 69.5081 41.7847 68.9845L41.7891 57.0933C46.1067 59.5685 55.7 60.3176 62.0039 60.32C68.3057 60.32 77.9034 59.5806 82.221 57.1078V68.9602C81.8057 70.2718 74.4954 72.7155 62.0017 72.7106H61.9973ZM82.221 54.0944C81.7925 55.4059 74.4844 57.8448 62.0017 57.8399C49.5388 57.8351 42.2373 55.4011 41.7869 54.1671V54.1477C41.8352 54.0507 42.3384 53.2216 45.3618 52.3052C50.2156 53.6701 57.1018 54.1235 62.0017 54.1235C66.9017 54.1235 73.7879 53.6774 78.6439 52.3149C81.7266 53.2507 82.1881 54.092 82.221 54.092V54.0944ZM62.0039 51.6458C49.5081 51.641 42.2 49.1924 41.7891 47.9221V36.026C46.1023 38.5013 55.7022 39.2528 62.0061 39.2552C68.3079 39.2552 77.9056 38.5158 82.2232 36.043V47.8954C81.8079 49.207 74.4976 51.6507 62.0039 51.6458Z"/>
</mask>
<path d="M84.4644 47.9367L84.4688 33.0684C84.471 28.1786 70.3514 26.867 62.0105 26.8646C53.6675 26.8622 39.5479 28.1616 39.5457 33.0514L39.5413 47.9197C39.5413 49.1706 40.4663 50.184 41.9802 51.0034C40.3323 51.8713 39.5413 52.8895 39.5413 54.1162L39.5369 68.9845C39.5369 70.2354 40.4619 71.2488 41.9758 72.0682C40.3257 72.9361 39.5347 73.9543 39.5347 75.181L39.5303 90.0517C39.5303 94.9415 53.6477 96.2531 61.9908 96.2555C70.3338 96.2579 84.4534 94.9585 84.4534 90.0686L84.4578 75.2004C84.4578 73.9713 83.669 72.9555 82.0189 72.0876C83.5328 71.2682 84.4578 70.2548 84.46 69.0039L84.4644 54.1356C84.4644 52.9065 83.6756 51.8907 82.0255 51.0228C83.5394 50.2034 84.4644 49.19 84.4666 47.9391L84.4644 47.9367ZM62.0083 29.3422C62.3951 29.3422 62.7774 29.3447 63.1553 29.3495C63.2893 29.3495 63.419 29.3544 63.5508 29.3568C63.7947 29.3616 64.0386 29.364 64.2781 29.3713C64.4165 29.3762 64.5528 29.381 64.6912 29.3834C64.9153 29.3907 65.1416 29.3956 65.3614 29.4028C65.5262 29.4101 65.6888 29.4174 65.8514 29.4247C66.0403 29.4319 66.2337 29.4392 66.4205 29.4489C66.5655 29.4562 66.7061 29.4659 66.8489 29.4731C67.0489 29.4853 67.251 29.495 67.4466 29.5071C67.6004 29.5168 67.7498 29.5265 67.8992 29.5386C68.0794 29.5507 68.2618 29.5628 68.4375 29.575C68.6001 29.5871 68.7583 29.6016 68.9187 29.6138C69.0791 29.6259 69.2417 29.638 69.3999 29.6525C69.5604 29.6671 69.7164 29.6816 69.8768 29.6986C70.0284 29.7131 70.1822 29.7253 70.3294 29.7422C70.4876 29.7592 70.6392 29.7762 70.793 29.7932C70.938 29.8077 71.0853 29.8247 71.2259 29.8392C71.3797 29.8562 71.5269 29.8756 71.6785 29.895C71.8147 29.9119 71.9554 29.9289 72.0894 29.9459C72.241 29.9653 72.3882 29.9871 72.5376 30.0065C72.6651 30.0235 72.7969 30.0404 72.9222 30.0598C73.0716 30.0816 73.2144 30.1035 73.3594 30.1253C73.4803 30.1422 73.6011 30.1616 73.7198 30.1786C73.867 30.2029 74.0076 30.2271 74.1504 30.2489C74.2625 30.2683 74.3746 30.2853 74.4844 30.3047C74.6251 30.3289 74.7591 30.3532 74.8953 30.3798C75.003 30.3992 75.1107 30.4186 75.2161 30.438C75.3524 30.4647 75.482 30.4914 75.616 30.5156C75.7149 30.535 75.816 30.5544 75.9127 30.5738C76.0467 30.6004 76.1741 30.6295 76.3016 30.6562C76.3917 30.6756 76.4861 30.695 76.574 30.7144C76.7015 30.7435 76.8223 30.7726 76.9432 30.7992C77.0289 30.8186 77.1168 30.8404 77.2003 30.8598C77.3167 30.8889 77.4266 30.9156 77.5386 30.9447C77.6243 30.9665 77.71 30.9883 77.7935 31.0102C77.899 31.0368 78.0001 31.0659 78.1033 31.095C78.1846 31.1168 78.2703 31.1411 78.3494 31.1629C78.4505 31.192 78.545 31.2211 78.6417 31.2502C78.7186 31.272 78.7955 31.2962 78.8702 31.318C78.9625 31.3471 79.0482 31.3738 79.1382 31.4029C79.2108 31.4271 79.2855 31.449 79.358 31.4732C79.4437 31.5023 79.5228 31.529 79.6063 31.558C79.6722 31.5823 79.7425 31.6041 79.8062 31.6283C79.8831 31.6574 79.9578 31.6841 80.0303 31.7132C80.0941 31.7374 80.1578 31.7617 80.2193 31.7859C80.2874 31.8126 80.3511 31.8393 80.4149 31.8659C80.4742 31.8902 80.5357 31.9168 80.5928 31.9411C80.6544 31.9678 80.7115 31.9944 80.7686 32.0211C80.8235 32.0453 80.8785 32.0696 80.929 32.0938C80.984 32.1205 81.0323 32.1447 81.0828 32.1714C81.1312 32.1956 81.1839 32.2223 81.23 32.2465C81.2762 32.2708 81.3179 32.2975 81.3619 32.3217C81.4058 32.3459 81.4498 32.3726 81.4915 32.3969C81.5333 32.4211 81.5684 32.4453 81.6036 32.4696C81.6409 32.4938 81.6805 32.5181 81.7134 32.5423C81.7464 32.5666 81.775 32.5884 81.8057 32.6126C81.8365 32.6369 81.8695 32.6611 81.898 32.6853C81.9244 32.7072 81.9464 32.729 81.9705 32.7508C81.9947 32.775 82.0233 32.7993 82.0452 32.8211C82.065 32.8429 82.0804 32.8623 82.098 32.8841C82.1177 32.9084 82.1375 32.9302 82.1529 32.9544C82.1661 32.9763 82.1771 32.9957 82.1859 33.0175C82.1968 33.0344 82.2056 33.0538 82.2144 33.0732C81.6563 34.3945 74.3702 36.7848 62.0105 36.78C49.5147 36.7751 42.2065 34.3266 41.7913 33.0951C42.2065 31.7835 49.5169 29.3398 62.0127 29.3447L62.0083 29.3422ZM61.9908 93.7754C49.4949 93.7706 42.1868 91.322 41.7759 90.0517L41.7803 78.1605C46.0979 80.6357 55.6912 81.3848 61.9952 81.3872C68.2969 81.3872 77.8946 80.6478 82.2122 78.175V90.0274C81.7969 91.339 74.4866 93.7827 61.993 93.7778L61.9908 93.7754ZM82.2144 75.1592C81.786 76.4707 74.4778 78.9096 61.9952 78.9047C49.5322 78.8999 42.2307 76.4659 41.7803 75.2319V75.2125C41.8286 75.1155 42.3318 74.2864 45.3552 73.37C50.209 74.7325 57.0952 75.1858 61.9952 75.1883C66.8951 75.1883 73.7813 74.7422 78.6373 73.3797C81.72 74.3155 82.1815 75.1592 82.2144 75.1592ZM61.9973 72.7106C54.6782 72.7082 49.1411 71.867 45.7266 70.9142C45.7046 70.9045 45.6782 70.9021 45.6563 70.8948C43.2832 70.2257 41.9517 69.5081 41.7847 68.9845L41.7891 57.0933C46.1067 59.5685 55.7 60.3176 62.0039 60.32C68.3057 60.32 77.9034 59.5806 82.221 57.1078V68.9602C81.8057 70.2718 74.4954 72.7155 62.0017 72.7106H61.9973ZM82.221 54.0944C81.7925 55.4059 74.4844 57.8448 62.0017 57.8399C49.5388 57.8351 42.2373 55.4011 41.7869 54.1671V54.1477C41.8352 54.0507 42.3384 53.2216 45.3618 52.3052C50.2156 53.6701 57.1018 54.1235 62.0017 54.1235C66.9017 54.1235 73.7879 53.6774 78.6439 52.3149C81.7266 53.2507 82.1881 54.092 82.221 54.092V54.0944ZM62.0039 51.6458C49.5081 51.641 42.2 49.1924 41.7891 47.9221V36.026C46.1023 38.5013 55.7022 39.2528 62.0061 39.2552C68.3079 39.2552 77.9056 38.5158 82.2232 36.043V47.8954C81.8079 49.207 74.4976 51.6507 62.0039 51.6458Z" fill="white"/>
<path d="M84.4644 47.9367L84.4688 33.0684C84.471 28.1786 70.3514 26.867 62.0105 26.8646C53.6675 26.8622 39.5479 28.1616 39.5457 33.0514L39.5413 47.9197C39.5413 49.1706 40.4663 50.184 41.9802 51.0034C40.3323 51.8713 39.5413 52.8895 39.5413 54.1162L39.5369 68.9845C39.5369 70.2354 40.4619 71.2488 41.9758 72.0682C40.3257 72.9361 39.5347 73.9543 39.5347 75.181L39.5303 90.0517C39.5303 94.9415 53.6477 96.2531 61.9908 96.2555C70.3338 96.2579 84.4534 94.9585 84.4534 90.0686L84.4578 75.2004C84.4578 73.9713 83.669 72.9555 82.0189 72.0876C83.5328 71.2682 84.4578 70.2548 84.46 69.0039L84.4644 54.1356C84.4644 52.9065 83.6756 51.8907 82.0255 51.0228C83.5394 50.2034 84.4644 49.19 84.4666 47.9391L84.4644 47.9367ZM62.0083 29.3422C62.3951 29.3422 62.7774 29.3447 63.1553 29.3495C63.2893 29.3495 63.419 29.3544 63.5508 29.3568C63.7947 29.3616 64.0386 29.364 64.2781 29.3713C64.4165 29.3762 64.5528 29.381 64.6912 29.3834C64.9153 29.3907 65.1416 29.3956 65.3614 29.4028C65.5262 29.4101 65.6888 29.4174 65.8514 29.4247C66.0403 29.4319 66.2337 29.4392 66.4205 29.4489C66.5655 29.4562 66.7061 29.4659 66.8489 29.4731C67.0489 29.4853 67.251 29.495 67.4466 29.5071C67.6004 29.5168 67.7498 29.5265 67.8992 29.5386C68.0794 29.5507 68.2618 29.5628 68.4375 29.575C68.6001 29.5871 68.7583 29.6016 68.9187 29.6138C69.0791 29.6259 69.2417 29.638 69.3999 29.6525C69.5604 29.6671 69.7164 29.6816 69.8768 29.6986C70.0284 29.7131 70.1822 29.7253 70.3294 29.7422C70.4876 29.7592 70.6392 29.7762 70.793 29.7932C70.938 29.8077 71.0853 29.8247 71.2259 29.8392C71.3797 29.8562 71.5269 29.8756 71.6785 29.895C71.8147 29.9119 71.9554 29.9289 72.0894 29.9459C72.241 29.9653 72.3882 29.9871 72.5376 30.0065C72.6651 30.0235 72.7969 30.0404 72.9222 30.0598C73.0716 30.0816 73.2144 30.1035 73.3594 30.1253C73.4803 30.1422 73.6011 30.1616 73.7198 30.1786C73.867 30.2029 74.0076 30.2271 74.1504 30.2489C74.2625 30.2683 74.3746 30.2853 74.4844 30.3047C74.6251 30.3289 74.7591 30.3532 74.8953 30.3798C75.003 30.3992 75.1107 30.4186 75.2161 30.438C75.3524 30.4647 75.482 30.4914 75.616 30.5156C75.7149 30.535 75.816 30.5544 75.9127 30.5738C76.0467 30.6004 76.1741 30.6295 76.3016 30.6562C76.3917 30.6756 76.4861 30.695 76.574 30.7144C76.7015 30.7435 76.8223 30.7726 76.9432 30.7992C77.0289 30.8186 77.1168 30.8404 77.2003 30.8598C77.3167 30.8889 77.4266 30.9156 77.5386 30.9447C77.6243 30.9665 77.71 30.9883 77.7935 31.0102C77.899 31.0368 78.0001 31.0659 78.1033 31.095C78.1846 31.1168 78.2703 31.1411 78.3494 31.1629C78.4505 31.192 78.545 31.2211 78.6417 31.2502C78.7186 31.272 78.7955 31.2962 78.8702 31.318C78.9625 31.3471 79.0482 31.3738 79.1382 31.4029C79.2108 31.4271 79.2855 31.449 79.358 31.4732C79.4437 31.5023 79.5228 31.529 79.6063 31.558C79.6722 31.5823 79.7425 31.6041 79.8062 31.6283C79.8831 31.6574 79.9578 31.6841 80.0303 31.7132C80.0941 31.7374 80.1578 31.7617 80.2193 31.7859C80.2874 31.8126 80.3511 31.8393 80.4149 31.8659C80.4742 31.8902 80.5357 31.9168 80.5928 31.9411C80.6544 31.9678 80.7115 31.9944 80.7686 32.0211C80.8235 32.0453 80.8785 32.0696 80.929 32.0938C80.984 32.1205 81.0323 32.1447 81.0828 32.1714C81.1312 32.1956 81.1839 32.2223 81.23 32.2465C81.2762 32.2708 81.3179 32.2975 81.3619 32.3217C81.4058 32.3459 81.4498 32.3726 81.4915 32.3969C81.5333 32.4211 81.5684 32.4453 81.6036 32.4696C81.6409 32.4938 81.6805 32.5181 81.7134 32.5423C81.7464 32.5666 81.775 32.5884 81.8057 32.6126C81.8365 32.6369 81.8695 32.6611 81.898 32.6853C81.9244 32.7072 81.9464 32.729 81.9705 32.7508C81.9947 32.775 82.0233 32.7993 82.0452 32.8211C82.065 32.8429 82.0804 32.8623 82.098 32.8841C82.1177 32.9084 82.1375 32.9302 82.1529 32.9544C82.1661 32.9763 82.1771 32.9957 82.1859 33.0175C82.1968 33.0344 82.2056 33.0538 82.2144 33.0732C81.6563 34.3945 74.3702 36.7848 62.0105 36.78C49.5147 36.7751 42.2065 34.3266 41.7913 33.0951C42.2065 31.7835 49.5169 29.3398 62.0127 29.3447L62.0083 29.3422ZM61.9908 93.7754C49.4949 93.7706 42.1868 91.322 41.7759 90.0517L41.7803 78.1605C46.0979 80.6357 55.6912 81.3848 61.9952 81.3872C68.2969 81.3872 77.8946 80.6478 82.2122 78.175V90.0274C81.7969 91.339 74.4866 93.7827 61.993 93.7778L61.9908 93.7754ZM82.2144 75.1592C81.786 76.4707 74.4778 78.9096 61.9952 78.9047C49.5322 78.8999 42.2307 76.4659 41.7803 75.2319V75.2125C41.8286 75.1155 42.3318 74.2864 45.3552 73.37C50.209 74.7325 57.0952 75.1858 61.9952 75.1883C66.8951 75.1883 73.7813 74.7422 78.6373 73.3797C81.72 74.3155 82.1815 75.1592 82.2144 75.1592ZM61.9973 72.7106C54.6782 72.7082 49.1411 71.867 45.7266 70.9142C45.7046 70.9045 45.6782 70.9021 45.6563 70.8948C43.2832 70.2257 41.9517 69.5081 41.7847 68.9845L41.7891 57.0933C46.1067 59.5685 55.7 60.3176 62.0039 60.32C68.3057 60.32 77.9034 59.5806 82.221 57.1078V68.9602C81.8057 70.2718 74.4954 72.7155 62.0017 72.7106H61.9973ZM82.221 54.0944C81.7925 55.4059 74.4844 57.8448 62.0017 57.8399C49.5388 57.8351 42.2373 55.4011 41.7869 54.1671V54.1477C41.8352 54.0507 42.3384 53.2216 45.3618 52.3052C50.2156 53.6701 57.1018 54.1235 62.0017 54.1235C66.9017 54.1235 73.7879 53.6774 78.6439 52.3149C81.7266 53.2507 82.1881 54.092 82.221 54.092V54.0944ZM62.0039 51.6458C49.5081 51.641 42.2 49.1924 41.7891 47.9221V36.026C46.1023 38.5013 55.7022 39.2528 62.0061 39.2552C68.3079 39.2552 77.9056 38.5158 82.2232 36.043V47.8954C81.8079 49.207 74.4976 51.6507 62.0039 51.6458Z" stroke="white" stroke-width="0.567133" mask="url(#path-2-outside-1_101_1132)"/>
</svg>
